<svg xmlns="http://www.w3.org/2000/svg" xmlns:xlink="http://www.w3.org/1999/xlink" xmlns:lucid="lucid" width="2320" height="933"><g transform="translate(740 -180)" lucid:page-tab-id="kg2AL6igp-Pb"><path d="M-1258.84 0h3840.5v1870.87h-3840.5z" fill="#fdf8f2"/><path d="M80 206a6 6 0 0 1 6-6h348a6 6 0 0 1 6 6v170a6 6 0 0 1-6 6H86a6 6 0 0 1-6-6z" stroke="#0b0b14" stroke-width="3" fill="#e3fae3"/><path d="M80 246.26h360M80 314.02h360" stroke="#0b0b14" stroke-width="3" fill="none"/><use xlink:href="#a" transform="matrix(1,0,0,1,88,208) translate(142.95811631944446 24.12087673611111)"/><path d="M90 506a6 6 0 0 1 6-6h328a6 6 0 0 1 6 6v233a6 6 0 0 1-6 6H96a6 6 0 0 1-6-6z" stroke="#0b0b14" stroke-width="3" fill="#edf5ff"/><use xlink:href="#b" transform="matrix(1,0,0,1,98,508) translate(89.14907407407412 78.5888888888889)"/><use xlink:href="#c" transform="matrix(1,0,0,1,98,508) translate(86.68641975308645 105.52222222222223)"/><use xlink:href="#d" transform="matrix(1,0,0,1,98,508) translate(10.188271604938336 132.45555555555555)"/><use xlink:href="#e" transform="matrix(1,0,0,1,98,508) translate(142.11172839506173 132.45555555555555)"/><use xlink:href="#f" transform="matrix(1,0,0,1,98,508) translate(206.82654320987652 132.45555555555555)"/><use xlink:href="#g" transform="matrix(1,0,0,1,98,508) translate(51.336419753086474 159.38888888888889)"/><path d="M640 506a6 6 0 0 1 6-6h328a6 6 0 0 1 6 6v206a6 6 0 0 1-6 6H646a6 6 0 0 1-6-6z" stroke="#0b0b14" stroke-width="3" fill="#edf5ff"/><use xlink:href="#b" transform="matrix(1,0,0,1,648,508) translate(89.14907407407412 78.55555555555557)"/><use xlink:href="#h" transform="matrix(1,0,0,1,648,508) translate(21.410493827160508 105.48888888888888)"/><use xlink:href="#i" transform="matrix(1,0,0,1,648,508) translate(29.48425925925929 132.42222222222222)"/><path d="M630 206a6 6 0 0 1 6-6h348a6 6 0 0 1 6 6v170a6 6 0 0 1-6 6H636a6 6 0 0 1-6-6z" stroke="#0b0b14" stroke-width="3" fill="#e3fae3"/><path d="M630 246.26h360m-360 67.76h360" stroke="#0b0b14" stroke-width="3" fill="none"/><use xlink:href="#j" transform="matrix(1,0,0,1,638,208) translate(35.009982638888914 24.12087673611111)"/><path d="M80 826a6 6 0 0 1 6-6h348a6 6 0 0 1 6 6v170a6 6 0 0 1-6 6H86a6 6 0 0 1-6-6z" stroke="#0b0b14" stroke-width="3" fill="#e3fae3"/><path d="M80 866.26h360M80 934.02h360" stroke="#0b0b14" stroke-width="3" fill="none"/><use xlink:href="#k" transform="matrix(1,0,0,1,88,828) translate(86.58875868055557 24.12087673611111)"/><path d="M260 497v-92.88" stroke="#232f3e" stroke-width="3" fill="none"/><path d="M261.5 498.5h-3v-1.54h3z" stroke="#232f3e" stroke-width=".05" fill="#232f3e"/><path d="M260 388.35l4.63 14.27h-9.26z" stroke="#232f3e" stroke-width="3" fill="#232f3e"/><path d="M352.1 498.02l322.96-107.98" stroke="#232f3e" stroke-width="3" fill="none"/><path d="M352.3 498.5h-4.78l-.16-.47 4.3-1.44z" stroke="#232f3e" stroke-width=".05" fill="#232f3e"/><path d="M690 385.04l-12.05 8.92-2.94-8.8z" stroke="#232f3e" stroke-width="3" fill="#232f3e"/><path d="M810 497v-92.88" stroke="#232f3e" stroke-width="3" fill="none"/><path d="M811.5 498.5h-3v-1.54h3z" stroke="#232f3e" stroke-width=".05" fill="#232f3e"/><path d="M810 388.35l4.63 14.27h-9.26z" stroke="#232f3e" stroke-width="3" fill="#232f3e"/><path d="M1200 506a6 6 0 0 1 6-6h348a6 6 0 0 1 6 6v188a6 6 0 0 1-6 6h-348a6 6 0 0 1-6-6z" stroke="#0b0b14" stroke-width="3" fill="#e3fae3"/><path d="M1200 546.26h360m-360 76.76h360" stroke="#0b0b14" stroke-width="3" fill="none"/><use xlink:href="#l" transform="matrix(1,0,0,1,1208,508) translate(139.44791666666666 24.12087673611111)"/><use xlink:href="#m" transform="matrix(1,0,0,1,1212,631.0251736111111) translate(84.95963541666666 39.120876736111114)"/><path d="M983 619.78h194.88" stroke="#232f3e" stroke-width="3" fill="none"/><path d="M983.04 621.28h-1.54v-3h1.54z" stroke="#232f3e" stroke-width=".05" fill="#232f3e"/><path d="M1193.65 619.78l-14.27 4.64v-9.27z" stroke="#232f3e" stroke-width="3" fill="#232f3e"/><path d="M260 748v49.88" stroke="#232f3e" stroke-width="3" fill="none"/><path d="M261.5 748.04h-3v-1.54h3z" stroke="#232f3e" stroke-width=".05" fill="#232f3e"/><path d="M260 813.65l-4.63-14.27h9.26z" stroke="#232f3e" stroke-width="3" fill="#232f3e"/><path d="M-600 366a6 6 0 0 1 6-6h348a6 6 0 0 1 6 6v261a6 6 0 0 1-6 6h-348a6 6 0 0 1-6-6z" stroke="#0b0b14" stroke-width="3" fill="#e3fae3"/><path d="M-600 406.26h360m-360 67.76h360" stroke="#0b0b14" stroke-width="3" fill="none"/><use xlink:href="#n" transform="matrix(1,0,0,1,-592,368) translate(77.74544270833333 24.12087673611111)"/><use xlink:href="#o" transform="matrix(1,0,0,1,-588,482.0251736111111) translate(86.93988715277777 34.72699652777777)"/><use xlink:href="#p" transform="matrix(1,0,0,1,-588,482.0251736111111) translate(82.61046006944444 64.98958333333333)"/><use xlink:href="#q" transform="matrix(1,0,0,1,-588,482.0251736111111) translate(75.89930555555556 95.25217013888889)"/><use xlink:href="#r" transform="matrix(1,0,0,1,-588,482.0251736111111) translate(168 125.51475694444444)"/><path d="M87.1 621.96L-219.26 503.9" stroke="#232f3e" stroke-width="3" fill="none"/><path d="M88.5 620.9v3.2l-1.97-.75 1.07-2.8z" stroke="#232f3e" stroke-width=".05" fill="#232f3e"/><path d="M-233.97 498.25l14.98.8-3.32 8.65z" stroke="#232f3e" stroke-width="3" fill="#232f3e"/><path d="M-720 826a6 6 0 0 1 6-6h588a6 6 0 0 1 6 6v261a6 6 0 0 1-6 6h-588a6 6 0 0 1-6-6z" stroke="#0b0b14" stroke-width="3" fill="#e3fae3"/><path d="M-720 866.26h600m-600 83.26h600" stroke="#0b0b14" stroke-width="3" fill="none"/><g><use xlink:href="#s" transform="matrix(1,0,0,1,-712,828) translate(226.05577256944446 24.12087673611111)"/></g><g><use xlink:href="#t" transform="matrix(1,0,0,1,-708,957.5251736111111) translate(168.31770833333331 42.35828993055556)"/><use xlink:href="#u" transform="matrix(1,0,0,1,-708,957.5251736111111) translate(340.5724826388889 42.35828993055556)"/><use xlink:href="#v" transform="matrix(1,0,0,1,-708,957.5251736111111) translate(39.009982638888914 72.62087673611111)"/><use xlink:href="#w" transform="matrix(1,0,0,1,-708,957.5251736111111) translate(58.785373263888886 102.88346354166666)"/></g><path d="M-420 817V655.12" stroke="#232f3e" stroke-width="3" fill="none"/><path d="M-418.5 818.5h-3v-1.54h3z" stroke="#232f3e" stroke-width=".05" fill="#232f3e"/><path d="M-420 639.35l4.63 14.27h-9.26z" stroke="#232f3e" stroke-width="3" fill="#232f3e"/><path d="M87.58 693.1L-105.8 940.25" stroke="#232f3e" stroke-width="3" fill="none"/><path d="M88.5 693.87l-2.13-1.67 2.13-2.72z" stroke="#232f3e" stroke-width=".05" fill="#232f3e"/><path d="M-115.5 952.68l5.13-14.1 7.3 5.72z" stroke="#232f3e" stroke-width="3" fill="#232f3e"/><defs><path fill="#0b0b14" d="M596-1225c-134-8-223 103-163 219 11 21 33 41 61 60s93 53 196 102c137 65 230 130 281 196s76 147 76 242c-3 286-231 426-539 426C352 20 214-9 94-68v-288c159 68 260 115 438 120 123 3 211-41 211-155 0-73-44-105-95-141-63-46-329-160-390-220-78-77-147-167-147-315 0-273 208-420 495-416 177 2 298 46 434 103l-100 241c-131-51-199-78-344-86" id="x"/><path fill="#0b0b14" d="M498-350c-2 85 52 126 133 127 53 0 117-12 192-35v227C747 3 654 20 543 20c-247 0-350-124-350-370v-539H47v-129l168-102 88-236h195v238h313v229H498v539" id="y"/><path fill="#0b0b14" d="M618-1141c286 0 465 117 465 396V0H870l-59-152h-8C704-33 632 18 432 20 216 22 86-113 86-334c0-119 44-202 124-262 109-82 356-99 570-100 11-142-39-219-174-219-89 0-194 27-315 81l-101-206c129-67 271-101 428-101zm-71 938c137 0 235-88 233-223v-92c-190 3-382 4-381 186 0 86 49 129 148 129" id="z"/><path fill="#0b0b14" d="M836-686c0-141-77-236-213-236-140 0-206 98-215 236h428zm223 627C946-4 838 19 666 20 308 22 92-191 92-551c0-356 187-588 529-588 314 0 504 195 501 508v148H401c5 169 104 277 279 276 158-2 261-33 379-88v236" id="A"/><g id="a"><use transform="matrix(0.010850694444444444,0,0,0.010850694444444444,0,0)" xlink:href="#x"/><use transform="matrix(0.010850694444444444,0,0,0.010850694444444444,12.239583333333332,0)" xlink:href="#y"/><use transform="matrix(0.010850694444444444,0,0,0.010850694444444444,21.885850694444443,0)" xlink:href="#z"/><use transform="matrix(0.010850694444444444,0,0,0.010850694444444444,35.30815972222222,0)" xlink:href="#y"/><use transform="matrix(0.010850694444444444,0,0,0.010850694444444444,44.95442708333333,0)" xlink:href="#A"/></g><path d="M15-91v-56l181-69v40L49-119l147 57v40" id="B"/><path d="M25-224v-37h50v37H25zM25 0v-190h50V0H25" id="C"/><path d="M135-194c87-1 58 113 63 194h-50c-7-57 23-157-34-157-59 0-34 97-39 157H25l-1-190h47c2 12-1 28 3 38 12-26 28-41 61-42" id="D"/><path d="M115-3C79 11 28 4 28-45v-112H4v-33h27l15-45h31v45h36v33H77v99c-1 23 16 31 38 25v30" id="E"/><path d="M185-48c-13 30-37 53-82 52C43 2 14-33 14-96s30-98 90-98c62 0 83 45 84 108H66c0 31 8 55 39 56 18 0 30-7 34-22zm-45-69c5-46-57-63-70-21-2 6-4 13-4 21h74" id="F"/><path d="M135-150c-39-12-60 13-60 57V0H25l-1-190h47c2 13-1 29 3 40 6-28 27-53 61-41v41" id="G"/><path d="M121-226c-27-7-43 5-38 36h38v33H83V0H34v-157H6v-33h28c-9-59 32-81 87-68v32" id="H"/><path d="M133-34C117-15 103 5 69 4 32 3 11-16 11-54c-1-60 55-63 116-61 1-26-3-47-28-47-18 1-26 9-28 27l-52-2c7-38 36-58 82-57s74 22 75 68l1 82c-1 14 12 18 25 15v27c-30 8-71 5-69-32zm-48 3c29 0 43-24 42-57-32 0-66-3-65 30 0 17 8 27 23 27" id="I"/><path d="M190-63c-7 42-38 67-86 67-59 0-84-38-90-98-12-110 154-137 174-36l-49 2c-2-19-15-32-35-32-30 0-35 28-38 64-6 74 65 87 74 30" id="J"/><path d="M15-22v-40l146-57-146-57v-40l181 69v56" id="K"/><g id="b"><use transform="matrix(0.06234567901234565,0,0,0.06234567901234565,0,0)" xlink:href="#B"/><use transform="matrix(0.06234567901234565,0,0,0.06234567901234565,13.092592592592586,0)" xlink:href="#B"/><use transform="matrix(0.06234567901234565,0,0,0.06234567901234565,26.185185185185173,0)" xlink:href="#C"/><use transform="matrix(0.06234567901234565,0,0,0.06234567901234565,32.41975308641974,0)" xlink:href="#D"/><use transform="matrix(0.06234567901234565,0,0,0.06234567901234565,46.07345679012344,0)" xlink:href="#E"/><use transform="matrix(0.06234567901234565,0,0,0.06234567901234565,53.49259259259257,0)" xlink:href="#F"/><use transform="matrix(0.06234567901234565,0,0,0.06234567901234565,65.9617283950617,0)" xlink:href="#G"/><use transform="matrix(0.06234567901234565,0,0,0.06234567901234565,74.69012345679009,0)" xlink:href="#H"/><use transform="matrix(0.06234567901234565,0,0,0.06234567901234565,82.10925925925922,0)" xlink:href="#I"/><use transform="matrix(0.06234567901234565,0,0,0.06234567901234565,94.57839506172834,0)" xlink:href="#J"/><use transform="matrix(0.06234567901234565,0,0,0.06234567901234565,107.04753086419747,0)" xlink:href="#F"/><use transform="matrix(0.06234567901234565,0,0,0.06234567901234565,119.5166666666666,0)" xlink:href="#K"/><use transform="matrix(0.06234567901234565,0,0,0.06234567901234565,132.60925925925918,0)" xlink:href="#K"/></g><path d="M88-194c31-1 46 15 58 34l-1-101h50l1 261h-48c-2-10 0-23-3-31C134-8 116 4 84 4 32 4 16-41 15-95c0-56 19-97 73-99zm17 164c33 0 40-30 41-66 1-37-9-64-41-64s-38 30-39 65c0 43 13 65 39 65" id="L"/><path d="M-4 44V30h207v14H-4" id="M"/><path d="M137-138c1-29-70-34-71-4 15 46 118 7 119 86 1 83-164 76-172 9l43-7c4 19 20 25 44 25 33 8 57-30 24-41C81-84 22-81 20-136c-2-80 154-74 161-7" id="N"/><g id="c"><use transform="matrix(0.06234567901234565,0,0,0.06234567901234565,0,0)" xlink:href="#L"/><use transform="matrix(0.06234567901234565,0,0,0.06234567901234565,13.653703703703698,0)" xlink:href="#F"/><use transform="matrix(0.06234567901234565,0,0,0.06234567901234565,26.12283950617283,0)" xlink:href="#J"/><use transform="matrix(0.06234567901234565,0,0,0.06234567901234565,38.59197530864196,0)" xlink:href="#C"/><use transform="matrix(0.06234567901234565,0,0,0.06234567901234565,44.826543209876526,0)" xlink:href="#L"/><use transform="matrix(0.06234567901234565,0,0,0.06234567901234565,58.480246913580224,0)" xlink:href="#F"/><use transform="matrix(0.06234567901234565,0,0,0.06234567901234565,70.94938271604936,0)" xlink:href="#M"/><use transform="matrix(0.06234567901234565,0,0,0.06234567901234565,83.41851851851848,0)" xlink:href="#E"/><use transform="matrix(0.06234567901234565,0,0,0.06234567901234565,90.83765432098761,0)" xlink:href="#G"/><use transform="matrix(0.06234567901234565,0,0,0.06234567901234565,99.566049382716,0)" xlink:href="#I"/><use transform="matrix(0.06234567901234565,0,0,0.06234567901234565,112.03518518518513,0)" xlink:href="#L"/><use transform="matrix(0.06234567901234565,0,0,0.06234567901234565,125.68888888888883,0)" xlink:href="#F"/><use transform="matrix(0.06234567901234565,0,0,0.06234567901234565,138.15802469135795,0)" xlink:href="#N"/></g><path d="M67-93c0 74 22 123 53 168H70C40 30 18-18 18-93s22-123 52-168h50c-32 44-53 94-53 168" id="O"/><path d="M220-157c-53 9-28 100-34 157h-49v-107c1-27-5-49-29-50C55-147 81-57 75 0H25l-1-190h47c2 12-1 28 3 38 10-53 101-56 108 0 13-22 24-43 59-42 82 1 51 116 57 194h-49v-107c-1-25-5-48-29-50" id="P"/><path d="M135-194c53 0 70 44 70 98 0 56-19 98-73 100-31 1-45-17-59-34 3 33 2 69 2 105H25l-1-265h48c2 10 0 23 3 31 11-24 29-35 60-35zM114-30c33 0 39-31 40-66 0-38-9-64-40-64-56 0-55 130 0 130" id="Q"/><path d="M76-54c-1 42 2 86-19 110H24C36 42 46 24 48 0H25v-54h51" id="R"/><g id="d"><use transform="matrix(0.06234567901234565,0,0,0.06234567901234565,0,0)" xlink:href="#O"/><use transform="matrix(0.06234567901234565,0,0,0.06234567901234565,7.419135802469133,0)" xlink:href="#E"/><use transform="matrix(0.06234567901234565,0,0,0.06234567901234565,14.838271604938265,0)" xlink:href="#C"/><use transform="matrix(0.06234567901234565,0,0,0.06234567901234565,21.07283950617283,0)" xlink:href="#P"/><use transform="matrix(0.06234567901234565,0,0,0.06234567901234565,41.02345679012344,0)" xlink:href="#F"/><use transform="matrix(0.06234567901234565,0,0,0.06234567901234565,53.49259259259257,0)" xlink:href="#N"/><use transform="matrix(0.06234567901234565,0,0,0.06234567901234565,65.9617283950617,0)" xlink:href="#E"/><use transform="matrix(0.06234567901234565,0,0,0.06234567901234565,73.38086419753083,0)" xlink:href="#I"/><use transform="matrix(0.06234567901234565,0,0,0.06234567901234565,85.84999999999995,0)" xlink:href="#P"/><use transform="matrix(0.06234567901234565,0,0,0.06234567901234565,105.80061728395056,0)" xlink:href="#Q"/><use transform="matrix(0.06234567901234565,0,0,0.06234567901234565,119.45432098765426,0)" xlink:href="#R"/></g><g id="e"><use transform="matrix(0.06234567901234565,0,0,0.06234567901234565,0,0)" xlink:href="#N"/><use transform="matrix(0.06234567901234565,0,0,0.06234567901234565,12.46913580246913,0)" xlink:href="#E"/><use transform="matrix(0.06234567901234565,0,0,0.06234567901234565,19.888271604938264,0)" xlink:href="#I"/><use transform="matrix(0.06234567901234565,0,0,0.06234567901234565,32.35740740740739,0)" xlink:href="#E"/><use transform="matrix(0.06234567901234565,0,0,0.06234567901234565,39.77654320987653,0)" xlink:href="#F"/><use transform="matrix(0.06234567901234565,0,0,0.06234567901234565,52.24567901234566,0)" xlink:href="#R"/></g><path d="M85 4C-2 5 27-109 22-190h50c7 57-23 150 33 157 60-5 35-97 40-157h50l1 190h-47c-2-12 1-28-3-38-12 25-28 42-61 42" id="S"/><path d="M128 0H69L1-190h53L99-40l48-150h52" id="T"/><path d="M102-93c0 74-22 123-52 168H0C30 29 54-18 53-93c0-74-22-123-53-168h50c30 45 52 94 52 168" id="U"/><path d="M35-132v-50h50v50H35zM35 0v-49h50V0H35" id="V"/><g id="f"><use transform="matrix(0.06234567901234565,0,0,0.06234567901234565,0,0)" xlink:href="#S"/><use transform="matrix(0.06234567901234565,0,0,0.06234567901234565,13.653703703703698,0)" xlink:href="#D"/><use transform="matrix(0.06234567901234565,0,0,0.06234567901234565,27.307407407407396,0)" xlink:href="#C"/><use transform="matrix(0.06234567901234565,0,0,0.06234567901234565,33.54197530864196,0)" xlink:href="#T"/><use transform="matrix(0.06234567901234565,0,0,0.06234567901234565,46.01111111111109,0)" xlink:href="#F"/><use transform="matrix(0.06234567901234565,0,0,0.06234567901234565,58.480246913580224,0)" xlink:href="#G"/><use transform="matrix(0.06234567901234565,0,0,0.06234567901234565,67.20864197530861,0)" xlink:href="#N"/><use transform="matrix(0.06234567901234565,0,0,0.06234567901234565,79.67777777777773,0)" xlink:href="#F"/><use transform="matrix(0.06234567901234565,0,0,0.06234567901234565,92.14691358024686,0)" xlink:href="#U"/><use transform="matrix(0.06234567901234565,0,0,0.06234567901234565,99.56604938271599,0)" xlink:href="#V"/></g><path d="M24 0v-248h52v208h133V0H24" id="W"/><path d="M20 75v-336h95v34H67V41h48v34H20" id="X"/><path d="M136-208V0H84v-208H4v-40h212v40h-80" id="Y"/><path d="M24 0v-248h195v40H76v63h132v40H76v65h150V0H24" id="Z"/><path d="M144 0l-44-69L55 0H2l70-98-66-92h53l41 62 40-62h54l-67 91 71 99h-54" id="aa"/><path d="M110-194c64 0 96 36 96 99 0 64-35 99-97 99-61 0-95-36-95-99 0-62 34-99 96-99zm-1 164c35 0 45-28 45-65 0-40-10-65-43-65-34 0-45 26-45 65 0 36 10 65 43 65" id="ab"/><path d="M4 75V41h49v-268H4v-34h96V75H4" id="ac"/><g id="g"><use transform="matrix(0.06234567901234565,0,0,0.06234567901234565,0,0)" xlink:href="#W"/><use transform="matrix(0.06234567901234565,0,0,0.06234567901234565,13.653703703703698,0)" xlink:href="#C"/><use transform="matrix(0.06234567901234565,0,0,0.06234567901234565,19.888271604938264,0)" xlink:href="#N"/><use transform="matrix(0.06234567901234565,0,0,0.06234567901234565,32.35740740740739,0)" xlink:href="#E"/><use transform="matrix(0.06234567901234565,0,0,0.06234567901234565,39.77654320987653,0)" xlink:href="#X"/><use transform="matrix(0.06234567901234565,0,0,0.06234567901234565,47.195679012345664,0)" xlink:href="#Y"/><use transform="matrix(0.06234567901234565,0,0,0.06234567901234565,59.60246913580245,0)" xlink:href="#G"/><use transform="matrix(0.06234567901234565,0,0,0.06234567901234565,68.33086419753084,0)" xlink:href="#I"/><use transform="matrix(0.06234567901234565,0,0,0.06234567901234565,80.79999999999997,0)" xlink:href="#L"/><use transform="matrix(0.06234567901234565,0,0,0.06234567901234565,94.45370370370367,0)" xlink:href="#F"/><use transform="matrix(0.06234567901234565,0,0,0.06234567901234565,106.92283950617279,0)" xlink:href="#Z"/><use transform="matrix(0.06234567901234565,0,0,0.06234567901234565,121.88580246913575,0)" xlink:href="#aa"/><use transform="matrix(0.06234567901234565,0,0,0.06234567901234565,134.35493827160488,0)" xlink:href="#F"/><use transform="matrix(0.06234567901234565,0,0,0.06234567901234565,146.82407407407402,0)" xlink:href="#J"/><use transform="matrix(0.06234567901234565,0,0,0.06234567901234565,159.29320987654316,0)" xlink:href="#S"/><use transform="matrix(0.06234567901234565,0,0,0.06234567901234565,172.94691358024687,0)" xlink:href="#E"/><use transform="matrix(0.06234567901234565,0,0,0.06234567901234565,180.366049382716,0)" xlink:href="#C"/><use transform="matrix(0.06234567901234565,0,0,0.06234567901234565,186.60061728395056,0)" xlink:href="#ab"/><use transform="matrix(0.06234567901234565,0,0,0.06234567901234565,200.25432098765424,0)" xlink:href="#D"/><use transform="matrix(0.06234567901234565,0,0,0.06234567901234565,213.90802469135792,0)" xlink:href="#ac"/></g><path d="M195-6C206 82 75 100 31 46c-4-6-6-13-8-21l49-6c3 16 16 24 34 25 40 0 42-37 40-79-11 22-30 35-61 35-53 0-70-43-70-97 0-56 18-96 73-97 30 0 46 14 59 34l2-30h47zm-90-29c32 0 41-27 41-63 0-35-9-62-40-62-32 0-39 29-40 63 0 36 9 62 39 62" id="ad"/><g id="h"><use transform="matrix(0.06234567901234565,0,0,0.06234567901234565,0,0)" xlink:href="#J"/><use transform="matrix(0.06234567901234565,0,0,0.06234567901234565,12.46913580246913,0)" xlink:href="#G"/><use transform="matrix(0.06234567901234565,0,0,0.06234567901234565,21.197530864197525,0)" xlink:href="#F"/><use transform="matrix(0.06234567901234565,0,0,0.06234567901234565,33.66666666666666,0)" xlink:href="#I"/><use transform="matrix(0.06234567901234565,0,0,0.06234567901234565,46.13580246913579,0)" xlink:href="#E"/><use transform="matrix(0.06234567901234565,0,0,0.06234567901234565,53.554938271604925,0)" xlink:href="#F"/><use transform="matrix(0.06234567901234565,0,0,0.06234567901234565,66.02407407407405,0)" xlink:href="#M"/><use transform="matrix(0.06234567901234565,0,0,0.06234567901234565,78.49320987654318,0)" xlink:href="#E"/><use transform="matrix(0.06234567901234565,0,0,0.06234567901234565,85.9123456790123,0)" xlink:href="#G"/><use transform="matrix(0.06234567901234565,0,0,0.06234567901234565,94.6407407407407,0)" xlink:href="#I"/><use transform="matrix(0.06234567901234565,0,0,0.06234567901234565,107.10987654320982,0)" xlink:href="#L"/><use transform="matrix(0.06234567901234565,0,0,0.06234567901234565,120.76358024691352,0)" xlink:href="#C"/><use transform="matrix(0.06234567901234565,0,0,0.06234567901234565,126.99814814814809,0)" xlink:href="#D"/><use transform="matrix(0.06234567901234565,0,0,0.06234567901234565,140.6518518518518,0)" xlink:href="#ad"/><use transform="matrix(0.06234567901234565,0,0,0.06234567901234565,154.3055555555555,0)" xlink:href="#M"/><use transform="matrix(0.06234567901234565,0,0,0.06234567901234565,166.77469135802463,0)" xlink:href="#S"/><use transform="matrix(0.06234567901234565,0,0,0.06234567901234565,180.42839506172834,0)" xlink:href="#D"/><use transform="matrix(0.06234567901234565,0,0,0.06234567901234565,194.08209876543202,0)" xlink:href="#C"/><use transform="matrix(0.06234567901234565,0,0,0.06234567901234565,200.31666666666658,0)" xlink:href="#T"/><use transform="matrix(0.06234567901234565,0,0,0.06234567901234565,212.78580246913572,0)" xlink:href="#F"/><use transform="matrix(0.06234567901234565,0,0,0.06234567901234565,225.25493827160486,0)" xlink:href="#G"/><use transform="matrix(0.06234567901234565,0,0,0.06234567901234565,233.98333333333323,0)" xlink:href="#N"/><use transform="matrix(0.06234567901234565,0,0,0.06234567901234565,246.45246913580237,0)" xlink:href="#F"/><use transform="matrix(0.06234567901234565,0,0,0.06234567901234565,258.9216049382715,0)" xlink:href="#O"/><use transform="matrix(0.06234567901234565,0,0,0.06234567901234565,266.34074074074067,0)" xlink:href="#U"/><use transform="matrix(0.06234567901234565,0,0,0.06234567901234565,273.7598765432098,0)" xlink:href="#V"/></g><path d="M169-182c-1-43-94-46-97-3 18 66 151 10 154 114 3 95-165 93-204 36-6-8-10-19-12-30l50-8c3 46 112 56 116 5-17-69-150-10-154-114-4-87 153-88 188-35 5 8 8 18 10 28" id="ae"/><path d="M123 10C108 53 80 86 19 72V37c35 8 53-11 59-39L3-190h52l48 148c12-52 28-100 44-148h51" id="af"/><path d="M238-95c0 69-44 99-111 99C63 4 22-25 22-93v-155h51v151c-1 38 19 59 55 60 90 1 49-130 58-211h52v153" id="ag"/><g id="i"><use transform="matrix(0.06234567901234565,0,0,0.06234567901234565,0,0)" xlink:href="#Y"/><use transform="matrix(0.06234567901234565,0,0,0.06234567901234565,12.406790123456785,0)" xlink:href="#G"/><use transform="matrix(0.06234567901234565,0,0,0.06234567901234565,21.13518518518518,0)" xlink:href="#I"/><use transform="matrix(0.06234567901234565,0,0,0.06234567901234565,33.60432098765431,0)" xlink:href="#L"/><use transform="matrix(0.06234567901234565,0,0,0.06234567901234565,47.25802469135801,0)" xlink:href="#C"/><use transform="matrix(0.06234567901234565,0,0,0.06234567901234565,53.49259259259257,0)" xlink:href="#D"/><use transform="matrix(0.06234567901234565,0,0,0.06234567901234565,67.14629629629627,0)" xlink:href="#ad"/><use transform="matrix(0.06234567901234565,0,0,0.06234567901234565,80.79999999999997,0)" xlink:href="#ae"/><use transform="matrix(0.06234567901234565,0,0,0.06234567901234565,95.76296296296293,0)" xlink:href="#E"/><use transform="matrix(0.06234567901234565,0,0,0.06234567901234565,103.18209876543206,0)" xlink:href="#G"/><use transform="matrix(0.06234567901234565,0,0,0.06234567901234565,111.91049382716045,0)" xlink:href="#I"/><use transform="matrix(0.06234567901234565,0,0,0.06234567901234565,124.37962962962958,0)" xlink:href="#E"/><use transform="matrix(0.06234567901234565,0,0,0.06234567901234565,131.79876543209872,0)" xlink:href="#F"/><use transform="matrix(0.06234567901234565,0,0,0.06234567901234565,144.26790123456786,0)" xlink:href="#ad"/><use transform="matrix(0.06234567901234565,0,0,0.06234567901234565,157.92160493827157,0)" xlink:href="#af"/><use transform="matrix(0.06234567901234565,0,0,0.06234567901234565,170.3907407407407,0)" xlink:href="#ag"/><use transform="matrix(0.06234567901234565,0,0,0.06234567901234565,186.53827160493825,0)" xlink:href="#D"/><use transform="matrix(0.06234567901234565,0,0,0.06234567901234565,200.19197530864193,0)" xlink:href="#C"/><use transform="matrix(0.06234567901234565,0,0,0.06234567901234565,206.42654320987648,0)" xlink:href="#T"/><use transform="matrix(0.06234567901234565,0,0,0.06234567901234565,218.89567901234562,0)" xlink:href="#F"/><use transform="matrix(0.06234567901234565,0,0,0.06234567901234565,231.36481481481476,0)" xlink:href="#G"/><use transform="matrix(0.06234567901234565,0,0,0.06234567901234565,240.09320987654314,0)" xlink:href="#N"/><use transform="matrix(0.06234567901234565,0,0,0.06234567901234565,252.56234567901228,0)" xlink:href="#F"/></g><path fill="#0b0b14" d="M748 0H438v-1204H41v-258h1104v258H748V0" id="ah"/><path fill="#0b0b14" d="M451-930c71-134 228-244 436-200l-23 286c-220-45-399 61-399 275V0H160v-1118h231l45 188h15" id="ai"/><path fill="#0b0b14" d="M92-557c0-327 132-582 430-582 141 0 248 55 322 164h10c-38-188-18-371-23-581h306V0H903l-59-145h-13C762-35 656 20 514 20 222 20 92-237 92-557zm309 4c0 190 54 330 220 330 191 0 231-123 231-332 0-214-44-336-236-336-161 0-215 151-215 338" id="aj"/><path fill="#0b0b14" d="M479-1407c-1 99-61 150-166 150-111 0-166-50-166-150 0-99 55-149 166-149s166 50 166 149zM465 0H160v-1118h305V0" id="ak"/><path fill="#0b0b14" d="M795-1139c261-1 398 148 397 410V0H887v-653c-1-148-42-242-180-242-202 0-242 139-242 369V0H160v-1118h233l41 143h17c62-102 185-163 344-164" id="al"/><path fill="#0b0b14" d="M549-1139c43 0 163 15 194 21h390v155l-175 45c32 50 48 106 48 168 2 289-261 415-574 373-89 78-53 146 121 146h190c229-1 375 93 377 311 0 131-55 232-164 304S691 492 487 492c-156 0-275-28-357-82S6 280 6 182C6 26 113-51 254-84c-55-22-119-89-117-162 3-107 68-140 144-190C169-483 89-600 90-756c1-259 185-383 459-383zM467 14c-100-2-199 51-197 144 3 184 368 146 487 90 62-30 93-71 93-123 0-42-19-70-55-87-64-30-222-23-328-24zm82-569c118 0 165-80 166-197 0-135-55-202-166-202-112 0-168 67-168 202 0 117 52 197 168 197" id="am"/><path fill="#0b0b14" d="M0-1118h334l211 629c18 55 30 119 37 194h6c7-69 23-133 43-194l207-629h327L692 143C611 389 392 544 70 475V233c95 21 196 18 262-37 50-42 89-123 112-204" id="an"/><path fill="#0b0b14" d="M776-240c213 0 289-110 289-329v-893h309v946c-8 356-241 531-606 536-358 5-595-195-594-540v-942h309v895c2 220 76 327 293 327" id="ao"/><path fill="#0b0b14" d="M426 0L0-1118h319l216 637c24 81 39 157 45 229h6c3-64 15-141 45-229l215-637h319L739 0H426" id="ap"/><path fill="#0b0b14" d="M836-831c-99-39-182-77-306-82-139-6-173 83-92 144 51 39 327 139 383 188 71 62 119 126 119 249C940-74 747 21 463 20 305 20 202 0 94-45v-252c93 45 253 94 379 94 111 0 166-32 166-96 0-68-41-76-98-109-79-46-276-119-333-167-74-61-116-125-116-252 0-368 555-367 836-224" id="aq"/><g id="j"><use transform="matrix(0.010850694444444444,0,0,0.010850694444444444,0,0)" xlink:href="#ah"/><use transform="matrix(0.010850694444444444,0,0,0.010850694444444444,11.762152777777777,0)" xlink:href="#ai"/><use transform="matrix(0.010850694444444444,0,0,0.010850694444444444,21.408420138888886,0)" xlink:href="#z"/><use transform="matrix(0.010850694444444444,0,0,0.010850694444444444,34.830729166666664,0)" xlink:href="#aj"/><use transform="matrix(0.010850694444444444,0,0,0.010850694444444444,48.893229166666664,0)" xlink:href="#ak"/><use transform="matrix(0.010850694444444444,0,0,0.010850694444444444,55.67491319444444,0)" xlink:href="#al"/><use transform="matrix(0.010850694444444444,0,0,0.010850694444444444,70.27994791666666,0)" xlink:href="#am"/><use transform="matrix(0.010850694444444444,0,0,0.010850694444444444,82.83420138888889,0)" xlink:href="#x"/><use transform="matrix(0.010850694444444444,0,0,0.010850694444444444,95.07378472222221,0)" xlink:href="#y"/><use transform="matrix(0.010850694444444444,0,0,0.010850694444444444,104.72005208333333,0)" xlink:href="#ai"/><use transform="matrix(0.010850694444444444,0,0,0.010850694444444444,114.36631944444441,0)" xlink:href="#z"/><use transform="matrix(0.010850694444444444,0,0,0.010850694444444444,127.7886284722222,0)" xlink:href="#y"/><use transform="matrix(0.010850694444444444,0,0,0.010850694444444444,137.43489583333331,0)" xlink:href="#A"/><use transform="matrix(0.010850694444444444,0,0,0.010850694444444444,150.5642361111111,0)" xlink:href="#am"/><use transform="matrix(0.010850694444444444,0,0,0.010850694444444444,163.11848958333331,0)" xlink:href="#an"/><use transform="matrix(0.010850694444444444,0,0,0.010850694444444444,175.7595486111111,0)" xlink:href="#ao"/><use transform="matrix(0.010850694444444444,0,0,0.010850694444444444,192.55642361111111,0)" xlink:href="#al"/><use transform="matrix(0.010850694444444444,0,0,0.010850694444444444,207.16145833333331,0)" xlink:href="#ak"/><use transform="matrix(0.010850694444444444,0,0,0.010850694444444444,213.94314236111111,0)" xlink:href="#ap"/><use transform="matrix(0.010850694444444444,0,0,0.010850694444444444,226.58420138888883,0)" xlink:href="#A"/><use transform="matrix(0.010850694444444444,0,0,0.010850694444444444,239.71354166666663,0)" xlink:href="#ai"/><use transform="matrix(0.010850694444444444,0,0,0.010850694444444444,249.8046875,0)" xlink:href="#aq"/><use transform="matrix(0.010850694444444444,0,0,0.010850694444444444,260.8506944444444,0)" xlink:href="#A"/></g><path fill="#0b0b14" d="M1026 0H184v-1462h842v254H494v321h495v254H494v377h532V0" id="ar"/><path fill="#0b0b14" d="M389-571L29-1118h346l217 356 219-356h346L793-571 1174 0H827L592-383 356 0H10" id="as"/><path fill="#0b0b14" d="M954-63C853 0 774 20 614 20 266 20 92-171 92-553c0-369 188-586 549-586 129 0 245 25 348 76l-90 236c-84-31-156-66-258-66-159 0-238 113-238 338 0 219 79 328 238 328 137 0 223-38 313-97v261" id="at"/><path fill="#0b0b14" d="M639-223c202 0 242-139 242-369v-526h305V0H952l-41-143h-16C834-43 709 20 551 20c-263 0-397-147-397-409v-729h305v653c1 148 42 242 180 242" id="au"/><path fill="#0b0b14" d="M633-893c-183 0-230 133-230 332s48 336 232 336c183 0 229-137 229-336s-47-332-231-332zm4-246c347 5 535 225 539 578S978 25 631 20C283 15 96-208 92-561c-4-355 196-583 545-578" id="av"/><g id="k"><use transform="matrix(0.010850694444444444,0,0,0.010850694444444444,0,0)" xlink:href="#ah"/><use transform="matrix(0.010850694444444444,0,0,0.010850694444444444,11.762152777777777,0)" xlink:href="#ai"/><use transform="matrix(0.010850694444444444,0,0,0.010850694444444444,21.408420138888886,0)" xlink:href="#z"/><use transform="matrix(0.010850694444444444,0,0,0.010850694444444444,34.830729166666664,0)" xlink:href="#aj"/><use transform="matrix(0.010850694444444444,0,0,0.010850694444444444,48.893229166666664,0)" xlink:href="#A"/><use transform="matrix(0.010850694444444444,0,0,0.010850694444444444,62.02256944444444,0)" xlink:href="#ar"/><use transform="matrix(0.010850694444444444,0,0,0.010850694444444444,74.46831597222221,0)" xlink:href="#as"/><use transform="matrix(0.010850694444444444,0,0,0.010850694444444444,86.8706597222222,0)" xlink:href="#A"/><use transform="matrix(0.010850694444444444,0,0,0.010850694444444444,99.99999999999997,0)" xlink:href="#at"/><use transform="matrix(0.010850694444444444,0,0,0.010850694444444444,111.42578124999997,0)" xlink:href="#au"/><use transform="matrix(0.010850694444444444,0,0,0.010850694444444444,126.0308159722222,0)" xlink:href="#y"/><use transform="matrix(0.010850694444444444,0,0,0.010850694444444444,135.67708333333331,0)" xlink:href="#ak"/><use transform="matrix(0.010850694444444444,0,0,0.010850694444444444,142.4587673611111,0)" xlink:href="#av"/><use transform="matrix(0.010850694444444444,0,0,0.010850694444444444,156.21744791666663,0)" xlink:href="#al"/></g><path fill="#0b0b14" d="M1133-1128c-95-42-202-97-328-97-258 0-367 218-367 498 0 326 122 489 367 489 103 0 227-26 373-77v260C1058-5 924 20 776 20c-443 0-662-290-657-749 5-455 236-754 686-754 142 0 285 34 428 103" id="aw"/><path fill="#0b0b14" d="M465 0H160v-1556h305V0" id="ax"/><g id="l"><use transform="matrix(0.010850694444444444,0,0,0.010850694444444444,0,0)" xlink:href="#aw"/><use transform="matrix(0.010850694444444444,0,0,0.010850694444444444,14.16015625,0)" xlink:href="#ax"/><use transform="matrix(0.010850694444444444,0,0,0.010850694444444444,20.94184027777778,0)" xlink:href="#ak"/><use transform="matrix(0.010850694444444444,0,0,0.010850694444444444,27.72352430555556,0)" xlink:href="#A"/><use transform="matrix(0.010850694444444444,0,0,0.010850694444444444,40.852864583333336,0)" xlink:href="#al"/><use transform="matrix(0.010850694444444444,0,0,0.010850694444444444,55.45789930555556,0)" xlink:href="#y"/></g><path fill="#0b0b14" d="M637-1325c-111 0-131 91-123 207h264v229H514V0H209v-889H41v-147l168-82c-18-311 94-449 395-449 105 0 199 16 281 47l-78 224c-61-19-118-29-170-29" id="ay"/><path fill="#0b0b14" d="M791-1139c262-1 402 148 401 410V0H887v-653c0-161-60-242-180-242-201 0-242 142-242 369V0H160v-1556h305c-1 210 6 368-14 581h16c68-109 176-164 324-164" id="az"/><path fill="#0b0b14" d="M846 324H-4V184h850v140" id="aA"/><path fill="#0b0b14" d="M383 324C201 116 82-188 82-561c0-378 120-688 301-901h250c-169 228-285 531-285 899 0 362 119 666 283 887H383" id="aB"/><path fill="#0b0b14" d="M311-1462c182 213 301 524 301 901 0 373-119 679-301 885H63c163-221 283-525 283-887 0-368-116-672-285-899h250" id="aC"/><g id="m"><use transform="matrix(0.010850694444444444,0,0,0.010850694444444444,0,0)" xlink:href="#ay"/><use transform="matrix(0.010850694444444444,0,0,0.010850694444444444,8.604600694444445,0)" xlink:href="#A"/><use transform="matrix(0.010850694444444444,0,0,0.010850694444444444,21.73394097222222,0)" xlink:href="#y"/><use transform="matrix(0.010850694444444444,0,0,0.010850694444444444,31.380208333333332,0)" xlink:href="#at"/><use transform="matrix(0.010850694444444444,0,0,0.010850694444444444,42.80598958333333,0)" xlink:href="#az"/><use transform="matrix(0.010850694444444444,0,0,0.010850694444444444,57.41102430555555,0)" xlink:href="#aA"/><use transform="matrix(0.010850694444444444,0,0,0.010850694444444444,66.54730902777777,0)" xlink:href="#at"/><use transform="matrix(0.010850694444444444,0,0,0.010850694444444444,77.97309027777777,0)" xlink:href="#z"/><use transform="matrix(0.010850694444444444,0,0,0.010850694444444444,91.39539930555556,0)" xlink:href="#al"/><use transform="matrix(0.010850694444444444,0,0,0.010850694444444444,106.00043402777777,0)" xlink:href="#aj"/><use transform="matrix(0.010850694444444444,0,0,0.010850694444444444,120.06293402777777,0)" xlink:href="#ax"/><use transform="matrix(0.010850694444444444,0,0,0.010850694444444444,126.84461805555556,0)" xlink:href="#A"/><use transform="matrix(0.010850694444444444,0,0,0.010850694444444444,139.97395833333331,0)" xlink:href="#aq"/><use transform="matrix(0.010850694444444444,0,0,0.010850694444444444,151.01996527777777,0)" xlink:href="#aB"/><use transform="matrix(0.010850694444444444,0,0,0.010850694444444444,158.55034722222223,0)" xlink:href="#aC"/></g><path fill="#0b0b14" d="M881-995c0-154-85-213-246-213H494v434h102c173 1 285-62 285-221zm-230-467c334-1 543 136 543 456 0 330-225 489-567 486H494V0H184v-1462h467" id="aD"/><path fill="#0b0b14" d="M1458 0c3-430-10-709 15-1145h-9L1087 0H803L451-1147h-9c31 483 15 690 19 1147H184v-1462h422L952-344h6l367-1118h422V0h-289" id="aE"/><g id="n"><use transform="matrix(0.010850694444444444,0,0,0.010850694444444444,0,0)" xlink:href="#aD"/><use transform="matrix(0.010850694444444444,0,0,0.010850694444444444,13.953993055555555,0)" xlink:href="#av"/><use transform="matrix(0.010850694444444444,0,0,0.010850694444444444,27.71267361111111,0)" xlink:href="#aq"/><use transform="matrix(0.010850694444444444,0,0,0.010850694444444444,38.75868055555556,0)" xlink:href="#ak"/><use transform="matrix(0.010850694444444444,0,0,0.010850694444444444,45.54036458333333,0)" xlink:href="#y"/><use transform="matrix(0.010850694444444444,0,0,0.010850694444444444,55.18663194444444,0)" xlink:href="#ak"/><use transform="matrix(0.010850694444444444,0,0,0.010850694444444444,61.96831597222222,0)" xlink:href="#av"/><use transform="matrix(0.010850694444444444,0,0,0.010850694444444444,75.72699652777777,0)" xlink:href="#al"/><use transform="matrix(0.010850694444444444,0,0,0.010850694444444444,90.33203125,0)" xlink:href="#aE"/><use transform="matrix(0.010850694444444444,0,0,0.010850694444444444,111.28472222222224,0)" xlink:href="#z"/><use transform="matrix(0.010850694444444444,0,0,0.010850694444444444,124.70703125,0)" xlink:href="#al"/><use transform="matrix(0.010850694444444444,0,0,0.010850694444444444,139.31206597222223,0)" xlink:href="#z"/><use transform="matrix(0.010850694444444444,0,0,0.010850694444444444,152.734375,0)" xlink:href="#am"/><use transform="matrix(0.010850694444444444,0,0,0.010850694444444444,165.28862847222223,0)" xlink:href="#A"/><use transform="matrix(0.010850694444444444,0,0,0.010850694444444444,178.41796875,0)" xlink:href="#ai"/></g><path fill="#0b0b14" d="M782-1139c293 0 422 256 422 578 0 230-70 418-202 512-65 46-141 69-228 69-131 0-234-48-309-143h-16c32 222 9 383 16 615H160v-1610h248l43 145h14c71-111 177-166 317-166zm111 574c0-190-40-330-209-330-184 0-221 128-219 332 2 209 40 336 223 336 137 0 205-113 205-338" id="aF"/><path fill="#0b0b14" d="M846 0H537c2-380-6-768 8-1137-108 112-167 145-275 236l-149-186 471-375h254V0" id="aG"/><g id="o"><use transform="matrix(0.010850694444444444,0,0,0.010850694444444444,0,0)" xlink:href="#av"/><use transform="matrix(0.010850694444444444,0,0,0.010850694444444444,13.758680555555555,0)" xlink:href="#aF"/><use transform="matrix(0.010850694444444444,0,0,0.010850694444444444,27.82118055555556,0)" xlink:href="#A"/><use transform="matrix(0.010850694444444444,0,0,0.010850694444444444,40.950520833333336,0)" xlink:href="#al"/><use transform="matrix(0.010850694444444444,0,0,0.010850694444444444,55.55555555555556,0)" xlink:href="#aA"/><use transform="matrix(0.010850694444444444,0,0,0.010850694444444444,64.69184027777777,0)" xlink:href="#aG"/><use transform="matrix(0.010850694444444444,0,0,0.010850694444444444,77.37630208333333,0)" xlink:href="#as"/><use transform="matrix(0.010850694444444444,0,0,0.010850694444444444,90.22352430555556,0)" xlink:href="#aA"/><use transform="matrix(0.010850694444444444,0,0,0.010850694444444444,99.35980902777777,0)" xlink:href="#ax"/><use transform="matrix(0.010850694444444444,0,0,0.010850694444444444,106.14149305555556,0)" xlink:href="#av"/><use transform="matrix(0.010850694444444444,0,0,0.010850694444444444,119.9001736111111,0)" xlink:href="#al"/><use transform="matrix(0.010850694444444444,0,0,0.010850694444444444,134.50520833333331,0)" xlink:href="#am"/><use transform="matrix(0.010850694444444444,0,0,0.010850694444444444,147.05946180555554,0)" xlink:href="#aB"/><use transform="matrix(0.010850694444444444,0,0,0.010850694444444444,154.58984375,0)" xlink:href="#aC"/></g><g id="p"><use transform="matrix(0.010850694444444444,0,0,0.010850694444444444,0,0)" xlink:href="#at"/><use transform="matrix(0.010850694444444444,0,0,0.010850694444444444,11.42578125,0)" xlink:href="#ax"/><use transform="matrix(0.010850694444444444,0,0,0.010850694444444444,18.20746527777778,0)" xlink:href="#av"/><use transform="matrix(0.010850694444444444,0,0,0.010850694444444444,31.966145833333336,0)" xlink:href="#aq"/><use transform="matrix(0.010850694444444444,0,0,0.010850694444444444,43.01215277777778,0)" xlink:href="#A"/><use transform="matrix(0.010850694444444444,0,0,0.010850694444444444,56.14149305555555,0)" xlink:href="#aA"/><use transform="matrix(0.010850694444444444,0,0,0.010850694444444444,65.27777777777777,0)" xlink:href="#aF"/><use transform="matrix(0.010850694444444444,0,0,0.010850694444444444,79.34027777777777,0)" xlink:href="#av"/><use transform="matrix(0.010850694444444444,0,0,0.010850694444444444,93.09895833333333,0)" xlink:href="#aq"/><use transform="matrix(0.010850694444444444,0,0,0.010850694444444444,104.14496527777777,0)" xlink:href="#ak"/><use transform="matrix(0.010850694444444444,0,0,0.010850694444444444,110.92664930555556,0)" xlink:href="#y"/><use transform="matrix(0.010850694444444444,0,0,0.010850694444444444,120.57291666666666,0)" xlink:href="#ak"/><use transform="matrix(0.010850694444444444,0,0,0.010850694444444444,127.35460069444441,0)" xlink:href="#av"/><use transform="matrix(0.010850694444444444,0,0,0.010850694444444444,141.11328124999997,0)" xlink:href="#al"/><use transform="matrix(0.010850694444444444,0,0,0.010850694444444444,155.7183159722222,0)" xlink:href="#aB"/><use transform="matrix(0.010850694444444444,0,0,0.010850694444444444,163.24869791666666,0)" xlink:href="#aC"/></g><path fill="#0b0b14" d="M465 121c1 241-150 373-395 371-78 0-145-8-201-25V227c47 13 94 19 143 19 107 0 147-62 148-170v-1194h305V121zm14-1528c-1 99-61 150-166 150-111 0-166-50-166-150 0-99 55-149 166-149s166 50 166 149" id="aH"/><g id="q"><use transform="matrix(0.010850694444444444,0,0,0.010850694444444444,0,0)" xlink:href="#z"/><use transform="matrix(0.010850694444444444,0,0,0.010850694444444444,13.422309027777777,0)" xlink:href="#aj"/><use transform="matrix(0.010850694444444444,0,0,0.010850694444444444,27.48480902777778,0)" xlink:href="#aH"/><use transform="matrix(0.010850694444444444,0,0,0.010850694444444444,34.26649305555556,0)" xlink:href="#au"/><use transform="matrix(0.010850694444444444,0,0,0.010850694444444444,48.87152777777778,0)" xlink:href="#aq"/><use transform="matrix(0.010850694444444444,0,0,0.010850694444444444,59.91753472222222,0)" xlink:href="#y"/><use transform="matrix(0.010850694444444444,0,0,0.010850694444444444,69.56380208333333,0)" xlink:href="#aA"/><use transform="matrix(0.010850694444444444,0,0,0.010850694444444444,78.70008680555554,0)" xlink:href="#aF"/><use transform="matrix(0.010850694444444444,0,0,0.010850694444444444,92.76258680555556,0)" xlink:href="#av"/><use transform="matrix(0.010850694444444444,0,0,0.010850694444444444,106.52126736111111,0)" xlink:href="#aq"/><use transform="matrix(0.010850694444444444,0,0,0.010850694444444444,117.56727430555556,0)" xlink:href="#ak"/><use transform="matrix(0.010850694444444444,0,0,0.010850694444444444,124.34895833333331,0)" xlink:href="#y"/><use transform="matrix(0.010850694444444444,0,0,0.010850694444444444,133.99522569444443,0)" xlink:href="#ak"/><use transform="matrix(0.010850694444444444,0,0,0.010850694444444444,140.7769097222222,0)" xlink:href="#av"/><use transform="matrix(0.010850694444444444,0,0,0.010850694444444444,154.53559027777774,0)" xlink:href="#al"/><use transform="matrix(0.010850694444444444,0,0,0.010850694444444444,169.14062499999997,0)" xlink:href="#aB"/><use transform="matrix(0.010850694444444444,0,0,0.010850694444444444,176.67100694444443,0)" xlink:href="#aC"/></g><path fill="#0b0b14" d="M1079 0L973-348H440L334 0H0l516-1468h379L1413 0h-334zM899-608c-127-415-146-457-192-633-22 85-85 296-189 633h381" id="aI"/><g id="s"><use transform="matrix(0.010850694444444444,0,0,0.010850694444444444,0,0)" xlink:href="#aI"/><use transform="matrix(0.010850694444444444,0,0,0.010850694444444444,15.33203125,0)" xlink:href="#ax"/><use transform="matrix(0.010850694444444444,0,0,0.010850694444444444,22.11371527777778,0)" xlink:href="#aF"/><use transform="matrix(0.010850694444444444,0,0,0.010850694444444444,36.17621527777778,0)" xlink:href="#az"/><use transform="matrix(0.010850694444444444,0,0,0.010850694444444444,50.78125,0)" xlink:href="#z"/><use transform="matrix(0.010850694444444444,0,0,0.010850694444444444,64.20355902777777,0)" xlink:href="#aE"/><use transform="matrix(0.010850694444444444,0,0,0.010850694444444444,85.15625,0)" xlink:href="#av"/><use transform="matrix(0.010850694444444444,0,0,0.010850694444444444,98.91493055555556,0)" xlink:href="#aj"/><use transform="matrix(0.010850694444444444,0,0,0.010850694444444444,112.97743055555556,0)" xlink:href="#A"/><use transform="matrix(0.010850694444444444,0,0,0.010850694444444444,126.10677083333333,0)" xlink:href="#ax"/></g><path fill="#0b0b14" d="M459-215C424-80 366 79 283 264H63c43-177 77-345 101-502h280" id="aJ"/><g id="t"><use transform="matrix(0.010850694444444444,0,0,0.010850694444444444,0,0)" xlink:href="#aq"/><use transform="matrix(0.010850694444444444,0,0,0.010850694444444444,11.046006944444445,0)" xlink:href="#A"/><use transform="matrix(0.010850694444444444,0,0,0.010850694444444444,24.17534722222222,0)" xlink:href="#y"/><use transform="matrix(0.010850694444444444,0,0,0.010850694444444444,33.82161458333333,0)" xlink:href="#aA"/><use transform="matrix(0.010850694444444444,0,0,0.010850694444444444,42.95789930555555,0)" xlink:href="#aq"/><use transform="matrix(0.010850694444444444,0,0,0.010850694444444444,54.003906249999986,0)" xlink:href="#ak"/><use transform="matrix(0.010850694444444444,0,0,0.010850694444444444,60.78559027777778,0)" xlink:href="#am"/><use transform="matrix(0.010850694444444444,0,0,0.010850694444444444,73.33984375,0)" xlink:href="#al"/><use transform="matrix(0.010850694444444444,0,0,0.010850694444444444,87.94487847222223,0)" xlink:href="#z"/><use transform="matrix(0.010850694444444444,0,0,0.010850694444444444,101.3671875,0)" xlink:href="#ax"/><use transform="matrix(0.010850694444444444,0,0,0.010850694444444444,108.14887152777777,0)" xlink:href="#aB"/><use transform="matrix(0.010850694444444444,0,0,0.010850694444444444,115.67925347222221,0)" xlink:href="#aF"/><use transform="matrix(0.010850694444444444,0,0,0.010850694444444444,129.74175347222223,0)" xlink:href="#z"/><use transform="matrix(0.010850694444444444,0,0,0.010850694444444444,143.1640625,0)" xlink:href="#ak"/><use transform="matrix(0.010850694444444444,0,0,0.010850694444444444,149.94574652777777,0)" xlink:href="#ai"/><use transform="matrix(0.010850694444444444,0,0,0.010850694444444444,160.03689236111111,0)" xlink:href="#aJ"/></g><g id="u"><use transform="matrix(0.010850694444444444,0,0,0.010850694444444444,0,0)" xlink:href="#ap"/><use transform="matrix(0.010850694444444444,0,0,0.010850694444444444,12.641059027777777,0)" xlink:href="#z"/><use transform="matrix(0.010850694444444444,0,0,0.010850694444444444,26.063368055555554,0)" xlink:href="#ax"/><use transform="matrix(0.010850694444444444,0,0,0.010850694444444444,32.84505208333333,0)" xlink:href="#au"/><use transform="matrix(0.010850694444444444,0,0,0.010850694444444444,47.45008680555556,0)" xlink:href="#A"/><use transform="matrix(0.010850694444444444,0,0,0.010850694444444444,60.57942708333333,0)" xlink:href="#aC"/></g><path fill="#0b0b14" d="M782-1139c292 0 422 259 422 578 0 185-39 328-116 429S907 20 774 20c-131 0-234-48-309-143h-21L393 0H160v-1556h305c-3 221 8 361-12 583h12c71-111 177-166 317-166zM465-596c-3 221 29 369 223 369 63 0 110-31 150-87 71-99 72-401-1-498-40-53-88-83-153-83-174 0-216 109-219 299" id="aK"/><path fill="#0b0b14" d="M403-553c0 196 45 334 220 334 192 0 229-123 229-336s-44-336-234-336c-143 0-215 113-215 338zm428 408C771-45 666 20 514 20 221 20 92-235 92-557c0-325 133-582 428-582 160 0 251 63 324 164h8l27-143h258V492H831c5-223-13-428 13-637h-13" id="aL"/><g id="v"><use transform="matrix(0.010850694444444444,0,0,0.010850694444444444,0,0)" xlink:href="#at"/><use transform="matrix(0.010850694444444444,0,0,0.010850694444444444,11.42578125,0)" xlink:href="#z"/><use transform="matrix(0.010850694444444444,0,0,0.010850694444444444,24.84809027777778,0)" xlink:href="#ax"/><use transform="matrix(0.010850694444444444,0,0,0.010850694444444444,31.62977430555556,0)" xlink:href="#at"/><use transform="matrix(0.010850694444444444,0,0,0.010850694444444444,43.05555555555556,0)" xlink:href="#au"/><use transform="matrix(0.010850694444444444,0,0,0.010850694444444444,57.66059027777778,0)" xlink:href="#ax"/><use transform="matrix(0.010850694444444444,0,0,0.010850694444444444,64.44227430555556,0)" xlink:href="#z"/><use transform="matrix(0.010850694444444444,0,0,0.010850694444444444,77.86458333333333,0)" xlink:href="#y"/><use transform="matrix(0.010850694444444444,0,0,0.010850694444444444,87.51085069444444,0)" xlink:href="#A"/><use transform="matrix(0.010850694444444444,0,0,0.010850694444444444,100.64019097222221,0)" xlink:href="#aA"/><use transform="matrix(0.010850694444444444,0,0,0.010850694444444444,109.77647569444441,0)" xlink:href="#y"/><use transform="matrix(0.010850694444444444,0,0,0.010850694444444444,119.42274305555556,0)" xlink:href="#z"/><use transform="matrix(0.010850694444444444,0,0,0.010850694444444444,132.84505208333331,0)" xlink:href="#ai"/><use transform="matrix(0.010850694444444444,0,0,0.010850694444444444,142.71918402777777,0)" xlink:href="#am"/><use transform="matrix(0.010850694444444444,0,0,0.010850694444444444,155.2734375,0)" xlink:href="#A"/><use transform="matrix(0.010850694444444444,0,0,0.010850694444444444,168.40277777777777,0)" xlink:href="#y"/><use transform="matrix(0.010850694444444444,0,0,0.010850694444444444,178.04904513888889,0)" xlink:href="#aA"/><use transform="matrix(0.010850694444444444,0,0,0.010850694444444444,187.18532986111111,0)" xlink:href="#aF"/><use transform="matrix(0.010850694444444444,0,0,0.010850694444444444,201.24782986111111,0)" xlink:href="#av"/><use transform="matrix(0.010850694444444444,0,0,0.010850694444444444,215.00651041666666,0)" xlink:href="#aq"/><use transform="matrix(0.010850694444444444,0,0,0.010850694444444444,226.05251736111111,0)" xlink:href="#ak"/><use transform="matrix(0.010850694444444444,0,0,0.010850694444444444,232.83420138888889,0)" xlink:href="#y"/><use transform="matrix(0.010850694444444444,0,0,0.010850694444444444,242.48046875,0)" xlink:href="#ak"/><use transform="matrix(0.010850694444444444,0,0,0.010850694444444444,249.26215277777777,0)" xlink:href="#av"/><use transform="matrix(0.010850694444444444,0,0,0.010850694444444444,263.0208333333333,0)" xlink:href="#al"/><use transform="matrix(0.010850694444444444,0,0,0.010850694444444444,277.62586805555554,0)" xlink:href="#aq"/><use transform="matrix(0.010850694444444444,0,0,0.010850694444444444,288.671875,0)" xlink:href="#aB"/><use transform="matrix(0.010850694444444444,0,0,0.010850694444444444,296.20225694444446,0)" xlink:href="#ak"/><use transform="matrix(0.010850694444444444,0,0,0.010850694444444444,302.98394097222223,0)" xlink:href="#al"/><use transform="matrix(0.010850694444444444,0,0,0.010850694444444444,317.58897569444446,0)" xlink:href="#ap"/><use transform="matrix(0.010850694444444444,0,0,0.010850694444444444,330.23003472222223,0)" xlink:href="#A"/><use transform="matrix(0.010850694444444444,0,0,0.010850694444444444,343.359375,0)" xlink:href="#aq"/><use transform="matrix(0.010850694444444444,0,0,0.010850694444444444,354.40538194444446,0)" xlink:href="#y"/><use transform="matrix(0.010850694444444444,0,0,0.010850694444444444,364.05164930555554,0)" xlink:href="#z"/><use transform="matrix(0.010850694444444444,0,0,0.010850694444444444,377.4739583333333,0)" xlink:href="#aK"/><use transform="matrix(0.010850694444444444,0,0,0.010850694444444444,391.5364583333333,0)" xlink:href="#ax"/><use transform="matrix(0.010850694444444444,0,0,0.010850694444444444,398.3181423611111,0)" xlink:href="#A"/><use transform="matrix(0.010850694444444444,0,0,0.010850694444444444,411.44748263888886,0)" xlink:href="#aA"/><use transform="matrix(0.010850694444444444,0,0,0.010850694444444444,420.5837673611111,0)" xlink:href="#A"/><use transform="matrix(0.010850694444444444,0,0,0.010850694444444444,433.71310763888886,0)" xlink:href="#aL"/><use transform="matrix(0.010850694444444444,0,0,0.010850694444444444,447.77560763888886,0)" xlink:href="#au"/><use transform="matrix(0.010850694444444444,0,0,0.010850694444444444,462.3806423611111,0)" xlink:href="#ak"/><use transform="matrix(0.010850694444444444,0,0,0.010850694444444444,469.16232638888886,0)" xlink:href="#y"/><use transform="matrix(0.010850694444444444,0,0,0.010850694444444444,478.8085937499999,0)" xlink:href="#an"/><use transform="matrix(0.010850694444444444,0,0,0.010850694444444444,491.44965277777766,0)" xlink:href="#aC"/></g><g id="w"><use transform="matrix(0.010850694444444444,0,0,0.010850694444444444,0,0)" xlink:href="#am"/><use transform="matrix(0.010850694444444444,0,0,0.010850694444444444,12.554253472222221,0)" xlink:href="#A"/><use transform="matrix(0.010850694444444444,0,0,0.010850694444444444,25.68359375,0)" xlink:href="#al"/><use transform="matrix(0.010850694444444444,0,0,0.010850694444444444,40.28862847222222,0)" xlink:href="#A"/><use transform="matrix(0.010850694444444444,0,0,0.010850694444444444,53.41796875,0)" xlink:href="#ai"/><use transform="matrix(0.010850694444444444,0,0,0.010850694444444444,63.06423611111112,0)" xlink:href="#z"/><use transform="matrix(0.010850694444444444,0,0,0.010850694444444444,76.48654513888889,0)" xlink:href="#y"/><use transform="matrix(0.010850694444444444,0,0,0.010850694444444444,86.1328125,0)" xlink:href="#A"/><use transform="matrix(0.010850694444444444,0,0,0.010850694444444444,99.26215277777777,0)" xlink:href="#aA"/><use transform="matrix(0.010850694444444444,0,0,0.010850694444444444,108.3984375,0)" xlink:href="#ai"/><use transform="matrix(0.010850694444444444,0,0,0.010850694444444444,118.0447048611111,0)" xlink:href="#A"/><use transform="matrix(0.010850694444444444,0,0,0.010850694444444444,131.17404513888889,0)" xlink:href="#aK"/><use transform="matrix(0.010850694444444444,0,0,0.010850694444444444,145.23654513888889,0)" xlink:href="#z"/><use transform="matrix(0.010850694444444444,0,0,0.010850694444444444,158.65885416666666,0)" xlink:href="#ax"/><use transform="matrix(0.010850694444444444,0,0,0.010850694444444444,165.44053819444443,0)" xlink:href="#z"/><use transform="matrix(0.010850694444444444,0,0,0.010850694444444444,178.86284722222223,0)" xlink:href="#al"/><use transform="matrix(0.010850694444444444,0,0,0.010850694444444444,193.46788194444443,0)" xlink:href="#at"/><use transform="matrix(0.010850694444444444,0,0,0.010850694444444444,204.89366319444443,0)" xlink:href="#A"/><use transform="matrix(0.010850694444444444,0,0,0.010850694444444444,218.02300347222223,0)" xlink:href="#aA"/><use transform="matrix(0.010850694444444444,0,0,0.010850694444444444,227.15928819444443,0)" xlink:href="#y"/><use transform="matrix(0.010850694444444444,0,0,0.010850694444444444,236.80555555555554,0)" xlink:href="#ai"/><use transform="matrix(0.010850694444444444,0,0,0.010850694444444444,246.45182291666666,0)" xlink:href="#z"/><use transform="matrix(0.010850694444444444,0,0,0.010850694444444444,259.87413194444446,0)" xlink:href="#aj"/><use transform="matrix(0.010850694444444444,0,0,0.010850694444444444,273.93663194444446,0)" xlink:href="#A"/><use transform="matrix(0.010850694444444444,0,0,0.010850694444444444,287.06597222222223,0)" xlink:href="#aq"/><use transform="matrix(0.010850694444444444,0,0,0.010850694444444444,298.1119791666667,0)" xlink:href="#aA"/><use transform="matrix(0.010850694444444444,0,0,0.010850694444444444,307.2482638888889,0)" xlink:href="#z"/><use transform="matrix(0.010850694444444444,0,0,0.010850694444444444,320.6705729166667,0)" xlink:href="#al"/><use transform="matrix(0.010850694444444444,0,0,0.010850694444444444,335.2756076388889,0)" xlink:href="#aj"/><use transform="matrix(0.010850694444444444,0,0,0.010850694444444444,349.3381076388889,0)" xlink:href="#aA"/><use transform="matrix(0.010850694444444444,0,0,0.010850694444444444,358.4743923611112,0)" xlink:href="#y"/><use transform="matrix(0.010850694444444444,0,0,0.010850694444444444,368.12065972222223,0)" xlink:href="#ai"/><use transform="matrix(0.010850694444444444,0,0,0.010850694444444444,378.21180555555554,0)" xlink:href="#ak"/><use transform="matrix(0.010850694444444444,0,0,0.010850694444444444,384.9934895833333,0)" xlink:href="#am"/><use transform="matrix(0.010850694444444444,0,0,0.010850694444444444,397.54774305555554,0)" xlink:href="#am"/><use transform="matrix(0.010850694444444444,0,0,0.010850694444444444,410.10199652777777,0)" xlink:href="#A"/><use transform="matrix(0.010850694444444444,0,0,0.010850694444444444,423.23133680555554,0)" xlink:href="#ai"/><use transform="matrix(0.010850694444444444,0,0,0.010850694444444444,433.32248263888886,0)" xlink:href="#aq"/><use transform="matrix(0.010850694444444444,0,0,0.010850694444444444,444.3684895833333,0)" xlink:href="#aB"/><use transform="matrix(0.010850694444444444,0,0,0.010850694444444444,451.89887152777777,0)" xlink:href="#aC"/></g></defs></g></svg>