<svg xmlns="http://www.w3.org/2000/svg" xmlns:xlink="http://www.w3.org/1999/xlink" xmlns:lucid="lucid" width="1358.5" height="560"><g transform="translate(-20 -120)" lucid:page-tab-id="PM1APsw9GRBN"><path d="M0 0h2581.67v1870.87H0z" fill="#fdf8f2"/><path d="M80 166a6 6 0 0 1 6-6h228a6 6 0 0 1 6 6v58.53a6 6 0 0 1-6 6H86a6 6 0 0 1-6-6z" stroke="#000" stroke-opacity="0" stroke-width="3" fill="#fff" fill-opacity="0"/><use xlink:href="#a" transform="matrix(1,0,0,1,85,165) translate(79.06666666666666 25.679166666666667)"/><use xlink:href="#b" transform="matrix(1,0,0,1,85,165) translate(118 25.679166666666667)"/><use xlink:href="#c" transform="matrix(1,0,0,1,85,165) translate(36.53333333333333 53.6125)"/><use xlink:href="#d" transform="matrix(1,0,0,1,85,165) translate(124.93333333333335 53.6125)"/><use xlink:href="#e" transform="matrix(1,0,0,1,85,165) translate(181.73333333333335 53.6125)"/><path d="M40 290.52h160v47.37H40zM200 290.52h160v47.37H200zM40 337.9h160v47.36H40zM200 337.9h160v47.36H200zM40 385.26h160v47.37H40zM200 385.26h160v47.37H200zM40 432.63h160V480H40zM200 432.63h160V480H200z" fill="#fff"/><path d="M40 290.52v47.37M200 290.52v47.37M360 290.52v47.37M40 337.9v47.36M200 337.9v47.36M360 337.9v47.36M40 385.26v47.37M200 385.26v47.37M360 385.26v47.37M40 432.63V480M200 432.63V480M360 432.63V480M40 290.52h160M200 290.52h160M40 337.9h160M200 337.9h160M40 385.26h160M200 385.26h160M40 432.63h160M40 480h160M200 432.63h160M200 480h160" stroke="#000" stroke-width="3" fill="none"/><use xlink:href="#f" transform="matrix(1,0,0,1,45,295.5251736111111) translate(34.34787326388889 27.62087673611111)"/><use xlink:href="#g" transform="matrix(1,0,0,1,45,295.5251736111111) translate(100.32009548611111 27.62087673611111)"/><use xlink:href="#h" transform="matrix(1,0,0,1,205,295.5251736111111) translate(53.146701388888886 27.62087673611111)"/><use xlink:href="#f" transform="matrix(1,0,0,1,45,342.8938802083333) translate(34.548611111111114 27.62087673611111)"/><use xlink:href="#i" transform="matrix(1,0,0,1,45,342.8938802083333) translate(100.52083333333333 27.62087673611111)"/><use xlink:href="#j" transform="matrix(1,0,0,1,205,342.8938802083333) translate(53.146701388888886 27.62087673611111)"/><use xlink:href="#f" transform="matrix(1,0,0,1,45,390.26258680555554) translate(34.93381076388889 27.62087673611111)"/><use xlink:href="#k" transform="matrix(1,0,0,1,45,390.26258680555554) translate(100.90603298611111 27.62087673611111)"/><use xlink:href="#l" transform="matrix(1,0,0,1,205,390.26258680555554) translate(53.146701388888886 27.62087673611111)"/><use xlink:href="#m" transform="matrix(1,0,0,1,45,437.63129340277777) translate(48.38324652777778 27.62087673611111)"/><use xlink:href="#n" transform="matrix(1,0,0,1,205,437.63129340277777) translate(53.146701388888886 27.62087673611111)"/><path d="M372.47 546a6 6 0 0 1 6-6h148a6 6 0 0 1 6 6v108a6 6 0 0 1-6 6h-148a6 6 0 0 1-6-6z" stroke="#000" stroke-opacity="0" stroke-width="3" fill="#22b554"/><use xlink:href="#o" transform="matrix(1,0,0,1,384.4666270033672,552) translate(35.898220486111114 41.752170138888886)"/><use xlink:href="#p" transform="matrix(1,0,0,1,384.4666270033672,552) translate(29.88151041666667 72.01475694444444)"/><path d="M452.5 536.5V409.1" stroke="#22b554" stroke-width="7" fill="none"/><path d="M456 540h-7v-3.6h7z" stroke="#22b554" stroke-width=".05" fill="#22b554"/><path d="M452.5 391.33l4.63 14.26h-9.26z" stroke="#22b554" stroke-width="7" fill="#22b554"/><path d="M509.4 380H365" stroke="#22b554" stroke-width="7" fill="none"/><path d="M527.17 380l-14.26 4.63v-9.26z" stroke="#22b554" stroke-width="7" fill="#22b554"/><path d="M365.1 383.5h-3.6v-7h3.6z" stroke="#22b554" stroke-width=".05" fill="#22b554"/><use xlink:href="#q" transform="matrix(1,0,0,1,399.23333333333335,348.0666666666667) translate(0.005000000000002558 21.866666666666664)"/><path d="M562.67 166a6 6 0 0 1 6-6h228a6 6 0 0 1 6 6v58.53a6 6 0 0 1-6 6h-228a6 6 0 0 1-6-6z" stroke="#000" stroke-opacity="0" stroke-width="3" fill="#fff" fill-opacity="0"/><use xlink:href="#a" transform="matrix(1,0,0,1,567.6666666666667,165) translate(73.19999999999999 25.679166666666667)"/><use xlink:href="#r" transform="matrix(1,0,0,1,567.6666666666667,165) translate(112.13333333333333 25.679166666666667)"/><use xlink:href="#c" transform="matrix(1,0,0,1,567.6666666666667,165) translate(36.53333333333333 53.6125)"/><use xlink:href="#d" transform="matrix(1,0,0,1,567.6666666666667,165) translate(124.93333333333335 53.6125)"/><use xlink:href="#s" transform="matrix(1,0,0,1,567.6666666666667,165) translate(181.73333333333335 53.6125)"/><path d="M540 289.13h160v47.37H540zM700 289.13h160v47.37H700zM540 336.5h160v47.37H540zM700 336.5h160v47.37H700zM540 383.87h160v40.26H540zM700 383.87h160v40.26H700zM540 424.13h160v43H540zM700 424.13h160v43H700z" fill="#fff"/><path d="M540 289.13v47.37M700 289.13v47.37M860 289.13v47.37M540 336.5v47.37M700 336.5v47.37M860 336.5v47.37M540 383.87v40.26M700 383.87v40.26M860 383.87v40.26M540 424.13v43M700 424.13v43M860 424.13v43M540 289.13h160M700 289.13h160M540 336.5h160M700 336.5h160M540 383.87h160M700 383.87h160M540 424.13h160M540 467.13h160M700 424.13h160M700 467.13h160" stroke="#000" stroke-width="3" fill="none"/><use xlink:href="#f" transform="matrix(1,0,0,1,545,294.12767301048774) translate(34.548611111111114 27.62087673611111)"/><use xlink:href="#i" transform="matrix(1,0,0,1,545,294.12767301048774) translate(100.52083333333333 27.62087673611111)"/><use xlink:href="#h" transform="matrix(1,0,0,1,705,294.12767301048774) translate(53.146701388888886 27.62087673611111)"/><use xlink:href="#f" transform="matrix(1,0,0,1,545,341.49637960770997) translate(34.93381076388889 27.62087673611111)"/><use xlink:href="#k" transform="matrix(1,0,0,1,545,341.49637960770997) translate(100.90603298611111 27.62087673611111)"/><use xlink:href="#j" transform="matrix(1,0,0,1,705,341.49637960770997) translate(53.146701388888886 27.62087673611111)"/><use xlink:href="#f" transform="matrix(1,0,0,1,545,388.8650862049322) translate(33.7890625 24.12087673611111)"/><use xlink:href="#t" transform="matrix(1,0,0,1,545,388.8650862049322) translate(99.76128472222221 24.12087673611111)"/><use xlink:href="#l" transform="matrix(1,0,0,1,705,388.8650862049322) translate(53.146701388888886 24.12087673611111)"/><use xlink:href="#m" transform="matrix(1,0,0,1,545,429.12767301048774) translate(48.38324652777778 25.12087673611111)"/><use xlink:href="#n" transform="matrix(1,0,0,1,705,429.12767301048774) translate(53.146701388888886 25.12087673611111)"/><path d="M870.97 546a6 6 0 0 1 6-6h148a6 6 0 0 1 6 6v108a6 6 0 0 1-6 6h-148a6 6 0 0 1-6-6z" stroke="#000" stroke-opacity="0" stroke-width="3" fill="#22b554"/><use xlink:href="#o" transform="matrix(1,0,0,1,882.9666270033672,552) translate(35.898220486111114 41.752170138888886)"/><use xlink:href="#p" transform="matrix(1,0,0,1,882.9666270033672,552) translate(29.88151041666667 72.01475694444444)"/><path d="M951 536.5V409.1" stroke="#22b554" stroke-width="7" fill="none"/><path d="M954.5 540h-7v-3.6h7z" stroke="#22b554" stroke-width=".05" fill="#22b554"/><path d="M951 391.33l4.63 14.26h-9.26z" stroke="#22b554" stroke-width="7" fill="#22b554"/><path d="M1007.9 380H863.5" stroke="#22b554" stroke-width="7" fill="none"/><path d="M1025.67 380l-14.26 4.63v-9.26z" stroke="#22b554" stroke-width="7" fill="#22b554"/><path d="M863.6 380H860" stroke="#22b554" stroke-width="7" fill="none"/><path d="M1080 156a6 6 0 0 1 6-6h228a6 6 0 0 1 6 6v58.53a6 6 0 0 1-6 6h-228a6 6 0 0 1-6-6z" stroke="#000" stroke-opacity="0" stroke-width="3" fill="#fff" fill-opacity="0"/><use xlink:href="#a" transform="matrix(1,0,0,1,1085,155) translate(73.19999999999999 25.679166666666667)"/><use xlink:href="#u" transform="matrix(1,0,0,1,1085,155) translate(112.13333333333333 25.679166666666667)"/><use xlink:href="#c" transform="matrix(1,0,0,1,1085,155) translate(36.53333333333333 53.6125)"/><use xlink:href="#d" transform="matrix(1,0,0,1,1085,155) translate(124.93333333333335 53.6125)"/><use xlink:href="#v" transform="matrix(1,0,0,1,1085,155) translate(181.73333333333335 53.6125)"/><path d="M1038.5 289.13h160v47.37h-160zM1198.5 289.13h160v47.37h-160zM1038.5 336.5h160v47.37h-160zM1198.5 336.5h160v47.37h-160zM1038.5 383.87h160v40.26h-160zM1198.5 383.87h160v40.26h-160zM1038.5 424.13h160v43h-160zM1198.5 424.13h160v43h-160z" fill="#fff"/><path d="M1038.5 289.13v47.37M1198.5 289.13v47.37M1358.5 289.13v47.37M1038.5 336.5v47.37M1198.5 336.5v47.37M1358.5 336.5v47.37M1038.5 383.87v40.26M1198.5 383.87v40.26M1358.5 383.87v40.26M1038.5 424.13v43M1198.5 424.13v43M1358.5 424.13v43M1038.5 289.13h160M1198.5 289.13h160M1038.5 336.5h160M1198.5 336.5h160M1038.5 383.87h160M1198.5 383.87h160M1038.5 424.13h160M1038.5 467.13h160M1198.5 424.13h160M1198.5 467.13h160" stroke="#000" stroke-width="3" fill="none"/><use xlink:href="#f" transform="matrix(1,0,0,1,1043.5,294.12767301048774) translate(33.7890625 27.62087673611111)"/><use xlink:href="#t" transform="matrix(1,0,0,1,1043.5,294.12767301048774) translate(99.76128472222221 27.62087673611111)"/><use xlink:href="#h" transform="matrix(1,0,0,1,1203.5,294.12767301048774) translate(53.146701388888886 27.62087673611111)"/><g><use xlink:href="#f" transform="matrix(1,0,0,1,1043.5,341.49637960770997) translate(34.93381076388889 27.62087673611111)"/><use xlink:href="#k" transform="matrix(1,0,0,1,1043.5,341.49637960770997) translate(100.90603298611111 27.62087673611111)"/></g><g><use xlink:href="#j" transform="matrix(1,0,0,1,1203.5,341.49637960770997) translate(53.146701388888886 27.62087673611111)"/></g><g><use xlink:href="#f" transform="matrix(1,0,0,1,1043.5,388.8650862049322) translate(34.548611111111114 24.12087673611111)"/><use xlink:href="#i" transform="matrix(1,0,0,1,1043.5,388.8650862049322) translate(100.52083333333333 24.12087673611111)"/></g><g><use xlink:href="#l" transform="matrix(1,0,0,1,1203.5,388.8650862049322) translate(53.146701388888886 24.12087673611111)"/></g><g><use xlink:href="#m" transform="matrix(1,0,0,1,1043.5,429.12767301048774) translate(48.38324652777778 25.12087673611111)"/></g><g><use xlink:href="#n" transform="matrix(1,0,0,1,1203.5,429.12767301048774) translate(53.146701388888886 25.12087673611111)"/></g><path d="M949.25 376.5V249.1M949.25 376.4v3.6" stroke="#22b554" stroke-width="7" fill="none"/><path d="M949.25 231.33l4.63 14.26h-9.26z" stroke="#22b554" stroke-width="7" fill="#22b554"/><path d="M889.08 140h123.77v40.26H889.08zM889.08 180.26h123.77v40.27H889.08z" fill="#fff"/><path d="M889.08 140v40.26M1012.85 140v40.26M889.08 180.26v40.27M1012.85 180.26v40.27M889.08 140h123.77M889.08 180.26h123.77M889.08 220.53h123.77" stroke="#000" stroke-width="3" fill="none"/><g><use xlink:href="#w" transform="matrix(1,0,0,1,894.083283754209,145) translate(24.800564236111114 24.12087673611111)"/><use xlink:href="#t" transform="matrix(1,0,0,1,894.083283754209,145) translate(72.74978298611111 24.12087673611111)"/></g><g><use xlink:href="#x" transform="matrix(1,0,0,1,894.083283754209,185.26258680555554) translate(27.182291666666668 24.12087673611111)"/><use xlink:href="#i" transform="matrix(1,0,0,1,894.083283754209,185.26258680555554) translate(71.88715277777777 24.12087673611111)"/></g><defs><path fill="#0b0b14" d="M353-270c-23-87-46-181-68-270h-4c-20 91-43 184-67 270h139zm30 115H184L144 0H-6l204-652h177L579 0H423" id="y"/><path fill="#0b0b14" d="M325 12c-51 0-88-24-118-52 7 70 5 148 5 224H65v-680h120l10 49h4c34-30 82-61 141-61 138 0 194 109 194 252 0 151-68 268-209 268zm-34-120c66 0 92-62 92-146 0-143-100-170-171-89v203c22 20 44 32 79 32" id="z"/><path fill="#0b0b14" d="M375-371c-80-25-141 14-163 83V0H65v-496h120l10 87h4c33-69 107-120 200-89" id="A"/><g id="a"><use transform="matrix(0.022222222222222223,0,0,0.022222222222222223,0,0)" xlink:href="#y"/><use transform="matrix(0.022222222222222223,0,0,0.022222222222222223,12.733333333333334,0)" xlink:href="#z"/><use transform="matrix(0.022222222222222223,0,0,0.022222222222222223,25.46666666666667,0)" xlink:href="#A"/></g><path fill="#0b0b14" d="M159 0c8-223 69-377 170-511H44v-124h442v90C365-410 311-250 307 0H159" id="B"/><path fill="#0b0b14" d="M256 12C136 11 86-60 85-180v-201H17v-109l76-6 17-132h122v132h119v115H232v199c-8 71 56 94 111 69L366-6c-31 9-67 19-110 18" id="C"/><path fill="#0b0b14" d="M304-383c-47 0-63 23-92 48V0H65v-701h147c0 89 3 181-7 261 37-31 84-68 153-68 115 0 153 83 154 200V0H365v-289c-1-62-8-94-61-94" id="D"/><g id="b"><use transform="matrix(0.022222222222222223,0,0,0.022222222222222223,0,0)" xlink:href="#B"/><use transform="matrix(0.022222222222222223,0,0,0.022222222222222223,11.733333333333334,0)" xlink:href="#C"/><use transform="matrix(0.022222222222222223,0,0,0.022222222222222223,20.244444444444447,0)" xlink:href="#D"/></g><path fill="#0b0b14" d="M522-190C521-12 317 48 148-12 106-28 68-51 35-82l84-101c39 33 96 62 161 68 76 7 125-70 66-109-108-71-285-73-285-246 0-163 188-231 345-172 37 15 69 36 97 64l-75 93c-39-29-74-46-135-52-69-6-115 67-55 103 110 65 286 70 284 244" id="E"/><path fill="#0b0b14" d="M194 12C101 12 47-46 47-138c0-52 22-93 66-122s115-49 213-59c-4-46-26-73-78-72-55 1-91 22-132 45l-52-97c59-34 124-65 212-65 136 0 197 79 197 224V0H353l-11-51h-3c-38 32-80 63-145 63zm50-114c42-3 57-20 82-42v-87c-53 7-88 20-109 32-47 27-37 102 27 97" id="F"/><path fill="#0b0b14" d="M287 12C128 12 36-86 36-248c0-153 86-255 234-260 163-6 229 133 205 300H178c9 112 149 136 236 75l49 89c-44 30-107 56-176 56zm69-311c-1-57-23-99-83-97-56 2-88 40-96 97h179" id="G"/><path fill="#0b0b14" d="M303 19c-41-1-90 2-121-6-18 16-27 32-27 49 0 45 56 57 110 57 53 1 114-18 114-61 0-37-35-38-76-39zm141 141C342 227 34 253 34 85c0-40 24-73 71-100v-4c-25-17-47-41-46-84 1-42 29-74 56-93v-4c-33-23-67-71-67-129 0-145 141-204 282-167h181v107h-79c9 15 16 40 16 65-3 116-79 164-195 167-19 0-39-3-60-10-12 10-18 17-18 37 0 55 98 35 155 37 109 4 189 25 189 126 0 61-34 100-75 127zM185-329c0 50 24 83 68 83s68-33 68-83c0-47-26-80-68-80-43 0-68 32-68 80" id="H"/><path fill="#0b0b14" d="M76 72c72 22 120-23 127-85L12-496h148c38 117 80 229 110 354h4c27-123 62-237 94-354h141L337 5C300 124 217 227 50 184" id="I"/><g id="c"><use transform="matrix(0.022222222222222223,0,0,0.022222222222222223,0,0)" xlink:href="#E"/><use transform="matrix(0.022222222222222223,0,0,0.022222222222222223,12.355555555555556,0)" xlink:href="#C"/><use transform="matrix(0.022222222222222223,0,0,0.022222222222222223,20.866666666666667,0)" xlink:href="#A"/><use transform="matrix(0.022222222222222223,0,0,0.022222222222222223,29.066666666666666,0)" xlink:href="#F"/><use transform="matrix(0.022222222222222223,0,0,0.022222222222222223,40.93333333333334,0)" xlink:href="#C"/><use transform="matrix(0.022222222222222223,0,0,0.022222222222222223,49.22222222222222,0)" xlink:href="#G"/><use transform="matrix(0.022222222222222223,0,0,0.022222222222222223,60.51111111111113,0)" xlink:href="#H"/><use transform="matrix(0.022222222222222223,0,0,0.022222222222222223,72.20000000000002,0)" xlink:href="#I"/></g><path fill="#0b0b14" d="M353 12C154 12 46-116 46-322s111-333 311-342c84-4 151 43 193 85l-81 91c-31-27-57-49-110-49-112 0-159 91-162 210s51 212 158 212c58 0 94-27 124-58l81 89c-48 56-112 96-207 96" id="J"/><path fill="#0b0b14" d="M281 12C124 12 36-88 36-248c0-163 99-254 258-260 63-3 113 24 145 57l-67 91c-82-73-185 1-185 112 0 77 41 140 111 141 38 0 66-19 89-36l59 93c-39 37-98 62-165 62" id="K"/><path fill="#0b0b14" d="M200 12C99 12 65-53 65-154v-547h147v553c-2 31 16 47 44 39L274 0c-19 8-45 12-74 12" id="L"/><g id="d"><use transform="matrix(0.022222222222222223,0,0,0.022222222222222223,0,0)" xlink:href="#J"/><use transform="matrix(0.022222222222222223,0,0,0.022222222222222223,12.533333333333333,0)" xlink:href="#I"/><use transform="matrix(0.022222222222222223,0,0,0.022222222222222223,23.933333333333334,0)" xlink:href="#K"/><use transform="matrix(0.022222222222222223,0,0,0.022222222222222223,34.31111111111111,0)" xlink:href="#L"/><use transform="matrix(0.022222222222222223,0,0,0.022222222222222223,40.666666666666664,0)" xlink:href="#G"/></g><path fill="#0b0b14" d="M89-577c67-13 109-30 158-58h108v516h119V0H70v-119h138v-367H89v-91" id="M"/><use transform="matrix(0.022222222222222223,0,0,0.022222222222222223,0,0)" xlink:href="#M" id="e"/><path d="M1079 0L973-348H440L334 0H0l516-1468h379L1413 0h-334zM899-608c-127-415-146-457-192-633-22 85-85 296-189 633h381" id="N"/><path d="M836-831c-99-39-182-77-306-82-139-6-173 83-92 144 51 39 327 139 383 188 71 62 119 126 119 249C940-74 747 21 463 20 305 20 202 0 94-45v-252c93 45 253 94 379 94 111 0 166-32 166-96 0-68-41-76-98-109-79-46-276-119-333-167-74-61-116-125-116-252 0-368 555-367 836-224" id="O"/><path d="M836-686c0-141-77-236-213-236-140 0-206 98-215 236h428zm223 627C946-4 838 19 666 20 308 22 92-191 92-551c0-356 187-588 529-588 314 0 504 195 501 508v148H401c5 169 104 277 279 276 158-2 261-33 379-88v236" id="P"/><path d="M498-350c-2 85 52 126 133 127 53 0 117-12 192-35v227C747 3 654 20 543 20c-247 0-350-124-350-370v-539H47v-129l168-102 88-236h195v238h313v229H498v539" id="Q"/><g id="f"><use transform="matrix(0.010850694444444444,0,0,0.010850694444444444,0,0)" xlink:href="#N"/><use transform="matrix(0.010850694444444444,0,0,0.010850694444444444,15.33203125,0)" xlink:href="#O"/><use transform="matrix(0.010850694444444444,0,0,0.010850694444444444,26.378038194444443,0)" xlink:href="#O"/><use transform="matrix(0.010850694444444444,0,0,0.010850694444444444,37.424045138888886,0)" xlink:href="#P"/><use transform="matrix(0.010850694444444444,0,0,0.010850694444444444,50.553385416666664,0)" xlink:href="#Q"/></g><use transform="matrix(0.010850694444444444,0,0,0.010850694444444444,0,0)" xlink:href="#N" id="g"/><path d="M557-1483c261-2 449 121 449 365 0 202-125 312-301 348v8c212 25 346 130 346 348 0 303-232 437-557 434C328 19 210-2 94-59v-158c108 55 257 96 406 96 253 0 379-99 379-297 0-177-139-266-418-266H317v-143h146c207 3 370-92 371-285 1-150-117-233-273-229-171 4-249 44-375 122l-84-112c109-87 268-150 455-152" id="R"/><path d="M279-1280c-47 96-47 413 0 509 27 56 65 85 120 85 109 0 164-113 164-340 0-225-55-338-164-338-55 0-93 29-120 84zm343-84c101 138 100 546 2 682-54 75-126 117-225 117-93 0-161-43-217-119-99-136-100-548-4-684 53-74 124-115 221-115s167 42 223 119zm537 670c-42 96-42 414 0 510 48 110 194 107 245 0 45-95 46-414 0-510-50-105-197-108-245 0zm343-86c102 136 100 548 2 684-54 75-125 116-224 116-95 0-163-42-218-119-98-136-98-548-2-683 53-74 123-115 220-115 95 0 165 42 222 117zm-179-682L512 0H365l811-1462h147" id="S"/><g id="h"><use transform="matrix(0.010850694444444444,0,0,0.010850694444444444,0,0)" xlink:href="#R"/><use transform="matrix(0.010850694444444444,0,0,0.010850694444444444,12.706163194444445,0)" xlink:href="#R"/><use transform="matrix(0.010850694444444444,0,0,0.010850694444444444,25.41232638888889,0)" xlink:href="#S"/></g><path d="M1268-424c0 285-235 424-537 424H184v-1462c456 17 1047-96 1047 370 0 167-86 294-225 316v10c175 38 262 140 262 342zm-355-627c0-133-104-157-256-157H494v325h180c151-2 239-31 239-168zM696-256c158 0 250-52 250-199 0-121-87-182-260-182H494v381h202" id="T"/><use transform="matrix(0.010850694444444444,0,0,0.010850694444444444,0,0)" xlink:href="#T" id="i"/><path d="M559-1483c258 0 441 142 440 389 0 93-26 184-78 275-109 192-433 475-612 657v8h752V0H100v-143c177-182 479-462 617-641 67-87 110-168 112-303 2-158-106-258-268-254-165 4-240 52-354 139l-88-113c135-112 281-168 440-168" id="U"/><path d="M1069-733c0 253-39 441-119 566S748 20 584 20c-157 0-277-64-359-192S102-486 102-733c0-255 40-444 119-567s200-185 363-185c159 0 280 64 362 193s123 315 123 559zm-724-463c-95 160-94 768 0 928 55 94 130 145 239 145 111 0 185-52 240-147 94-164 94-761 0-924-55-95-129-147-240-147-109 0-184 52-239 145" id="V"/><g id="j"><use transform="matrix(0.010850694444444444,0,0,0.010850694444444444,0,0)" xlink:href="#U"/><use transform="matrix(0.010850694444444444,0,0,0.010850694444444444,12.706163194444445,0)" xlink:href="#V"/><use transform="matrix(0.010850694444444444,0,0,0.010850694444444444,25.41232638888889,0)" xlink:href="#S"/></g><path d="M1133-1128c-95-42-202-97-328-97-258 0-367 218-367 498 0 326 122 489 367 489 103 0 227-26 373-77v260C1058-5 924 20 776 20c-443 0-662-290-657-749 5-455 236-754 686-754 142 0 285 34 428 103" id="W"/><use transform="matrix(0.010850694444444444,0,0,0.010850694444444444,0,0)" xlink:href="#W" id="k"/><path d="M715 0H553c4-427-9-874 8-1288-79 77-94 81-285 239l-88-114 387-299h140V0" id="X"/><path d="M285 0l606-1309H94v-153h973v133L469 0H285" id="Y"/><g id="l"><use transform="matrix(0.010850694444444444,0,0,0.010850694444444444,0,0)" xlink:href="#X"/><use transform="matrix(0.010850694444444444,0,0,0.010850694444444444,12.706163194444445,0)" xlink:href="#Y"/><use transform="matrix(0.010850694444444444,0,0,0.010850694444444444,25.41232638888889,0)" xlink:href="#S"/></g><path d="M618-1141c286 0 465 117 465 396V0H870l-59-152h-8C704-33 632 18 432 20 216 22 86-113 86-334c0-119 44-202 124-262 109-82 356-99 570-100 11-142-39-219-174-219-89 0-194 27-315 81l-101-206c129-67 271-101 428-101zm-71 938c137 0 235-88 233-223v-92c-190 3-382 4-381 186 0 86 49 129 148 129" id="Z"/><path d="M791-1139c262-1 402 148 401 410V0H887v-653c0-161-60-242-180-242-201 0-242 142-242 369V0H160v-1556h305c-1 210 6 368-14 581h16c68-109 176-164 324-164" id="aa"/><g id="m"><use transform="matrix(0.010850694444444444,0,0,0.010850694444444444,0,0)" xlink:href="#W"/><use transform="matrix(0.010850694444444444,0,0,0.010850694444444444,14.16015625,0)" xlink:href="#Z"/><use transform="matrix(0.010850694444444444,0,0,0.010850694444444444,27.58246527777778,0)" xlink:href="#O"/><use transform="matrix(0.010850694444444444,0,0,0.010850694444444444,38.62847222222222,0)" xlink:href="#aa"/></g><path d="M1130-336H913V0H754v-336H43v-145l694-989h176v983h217v151zM754-487c2-284-7-530 10-809h-8c-32 64-61 118-90 159L209-487h545" id="ab"/><g id="n"><use transform="matrix(0.010850694444444444,0,0,0.010850694444444444,0,0)" xlink:href="#ab"/><use transform="matrix(0.010850694444444444,0,0,0.010850694444444444,12.706163194444445,0)" xlink:href="#V"/><use transform="matrix(0.010850694444444444,0,0,0.010850694444444444,25.41232638888889,0)" xlink:href="#S"/></g><path fill="#0b0b14" d="M1079 0L973-348H440L334 0H0l516-1468h379L1413 0h-334zM899-608c-127-415-146-457-192-633-22 85-85 296-189 633h381" id="ac"/><path fill="#0b0b14" d="M465 0H160v-1556h305V0" id="ad"/><path fill="#0b0b14" d="M782-1139c293 0 422 256 422 578 0 230-70 418-202 512-65 46-141 69-228 69-131 0-234-48-309-143h-16c32 222 9 383 16 615H160v-1610h248l43 145h14c71-111 177-166 317-166zm111 574c0-190-40-330-209-330-184 0-221 128-219 332 2 209 40 336 223 336 137 0 205-113 205-338" id="ae"/><path fill="#0b0b14" d="M791-1139c262-1 402 148 401 410V0H887v-653c0-161-60-242-180-242-201 0-242 142-242 369V0H160v-1556h305c-1 210 6 368-14 581h16c68-109 176-164 324-164" id="af"/><path fill="#0b0b14" d="M618-1141c286 0 465 117 465 396V0H870l-59-152h-8C704-33 632 18 432 20 216 22 86-113 86-334c0-119 44-202 124-262 109-82 356-99 570-100 11-142-39-219-174-219-89 0-194 27-315 81l-101-206c129-67 271-101 428-101zm-71 938c137 0 235-88 233-223v-92c-190 3-382 4-381 186 0 86 49 129 148 129" id="ag"/><g id="o"><use transform="matrix(0.010850694444444444,0,0,0.010850694444444444,0,0)" xlink:href="#ac"/><use transform="matrix(0.010850694444444444,0,0,0.010850694444444444,15.33203125,0)" xlink:href="#ad"/><use transform="matrix(0.010850694444444444,0,0,0.010850694444444444,22.11371527777778,0)" xlink:href="#ae"/><use transform="matrix(0.010850694444444444,0,0,0.010850694444444444,36.17621527777778,0)" xlink:href="#af"/><use transform="matrix(0.010850694444444444,0,0,0.010850694444444444,50.78125,0)" xlink:href="#ag"/></g><path fill="#0b0b14" d="M836-831c-99-39-182-77-306-82-139-6-173 83-92 144 51 39 327 139 383 188 71 62 119 126 119 249C940-74 747 21 463 20 305 20 202 0 94-45v-252c93 45 253 94 379 94 111 0 166-32 166-96 0-68-41-76-98-109-79-46-276-119-333-167-74-61-116-125-116-252 0-368 555-367 836-224" id="ah"/><path fill="#0b0b14" d="M479-1407c-1 99-61 150-166 150-111 0-166-50-166-150 0-99 55-149 166-149s166 50 166 149zM465 0H160v-1118h305V0" id="ai"/><path fill="#0b0b14" d="M549-1139c43 0 163 15 194 21h390v155l-175 45c32 50 48 106 48 168 2 289-261 415-574 373-89 78-53 146 121 146h190c229-1 375 93 377 311 0 131-55 232-164 304S691 492 487 492c-156 0-275-28-357-82S6 280 6 182C6 26 113-51 254-84c-55-22-119-89-117-162 3-107 68-140 144-190C169-483 89-600 90-756c1-259 185-383 459-383zM467 14c-100-2-199 51-197 144 3 184 368 146 487 90 62-30 93-71 93-123 0-42-19-70-55-87-64-30-222-23-328-24zm82-569c118 0 165-80 166-197 0-135-55-202-166-202-112 0-168 67-168 202 0 117 52 197 168 197" id="aj"/><path fill="#0b0b14" d="M795-1139c261-1 398 148 397 410V0H887v-653c-1-148-42-242-180-242-202 0-242 139-242 369V0H160v-1118h233l41 143h17c62-102 185-163 344-164" id="ak"/><g id="p"><use transform="matrix(0.010850694444444444,0,0,0.010850694444444444,0,0)" xlink:href="#ah"/><use transform="matrix(0.010850694444444444,0,0,0.010850694444444444,11.046006944444445,0)" xlink:href="#ai"/><use transform="matrix(0.010850694444444444,0,0,0.010850694444444444,17.82769097222222,0)" xlink:href="#aj"/><use transform="matrix(0.010850694444444444,0,0,0.010850694444444444,30.381944444444443,0)" xlink:href="#ak"/><use transform="matrix(0.010850694444444444,0,0,0.010850694444444444,44.986979166666664,0)" xlink:href="#ag"/><use transform="matrix(0.010850694444444444,0,0,0.010850694444444444,58.40928819444444,0)" xlink:href="#ad"/><use transform="matrix(0.010850694444444444,0,0,0.010850694444444444,65.19097222222221,0)" xlink:href="#ah"/></g><path fill="#0b0b14" d="M419-449c0-96-100-86-195-86v183c101 5 195 0 195-97zm144 0c1 98-48 158-116 188L595 0H430L305-235h-81V0H77v-652h235c149 1 250 54 251 203" id="al"/><path fill="#0b0b14" d="M325 12c-57 0-98-29-129-64h-4L180 0H65v-701h147c-1 83 2 170-4 248 33-29 75-55 131-55 138 0 195 108 195 251 0 151-68 269-209 269zm-34-120c66 0 92-62 92-146 0-143-101-170-171-89v203c22 20 44 32 79 32" id="am"/><path fill="#0b0b14" d="M304-383c-47 0-63 23-92 48V0H65v-496h120l10 63h4c41-35 85-76 159-75 115 0 153 83 154 200V0H365v-289c-1-62-8-94-61-94" id="an"/><g id="q"><use transform="matrix(0.02222222222222222,0,0,0.02222222222222222,0,0)" xlink:href="#al"/><use transform="matrix(0.02222222222222222,0,0,0.02222222222222222,13.466666666666665,0)" xlink:href="#G"/><use transform="matrix(0.02222222222222222,0,0,0.02222222222222222,24.977777777777774,0)" xlink:href="#am"/><use transform="matrix(0.02222222222222222,0,0,0.02222222222222222,37.46666666666666,0)" xlink:href="#F"/><use transform="matrix(0.02222222222222222,0,0,0.02222222222222222,49.33333333333333,0)" xlink:href="#L"/><use transform="matrix(0.02222222222222222,0,0,0.02222222222222222,55.68888888888888,0)" xlink:href="#F"/><use transform="matrix(0.02222222222222222,0,0,0.02222222222222222,67.55555555555554,0)" xlink:href="#an"/><use transform="matrix(0.02222222222222222,0,0,0.02222222222222222,80.26666666666665,0)" xlink:href="#K"/><use transform="matrix(0.02222222222222222,0,0,0.02222222222222222,90.02222222222221,0)" xlink:href="#G"/></g><path fill="#0b0b14" d="M294-264c-1-82 0-168 6-245h-4c-38 89-88 166-136 245h134zm210 112h-73V0H294v-152H19v-101l232-382h180v371h73v112" id="ao"/><g id="r"><use transform="matrix(0.022222222222222223,0,0,0.022222222222222223,0,0)" xlink:href="#M"/><use transform="matrix(0.022222222222222223,0,0,0.022222222222222223,11.733333333333334,0)" xlink:href="#ao"/><use transform="matrix(0.022222222222222223,0,0,0.022222222222222223,23.46666666666667,0)" xlink:href="#C"/><use transform="matrix(0.022222222222222223,0,0,0.022222222222222223,31.977777777777778,0)" xlink:href="#D"/></g><path fill="#0b0b14" d="M250-116c71-11 154-8 234-8V0H37v-84c94-91 189-171 255-280 42-68 19-172-69-168-54 2-84 36-113 65l-80-79c58-59 107-99 213-101 157-4 251 132 193 283-38 99-117 175-186 248" id="ap"/><use transform="matrix(0.022222222222222223,0,0,0.022222222222222223,0,0)" xlink:href="#ap" id="s"/><path d="M643-1462c464-5 754 260 754 717 0 491-297 749-799 745H184v-1462h459zm432 725c0-314-139-471-416-471H494v952h133c299 0 448-160 448-481" id="aq"/><use transform="matrix(0.010850694444444444,0,0,0.010850694444444444,0,0)" xlink:href="#aq" id="t"/><g id="u"><use transform="matrix(0.022222222222222223,0,0,0.022222222222222223,0,0)" xlink:href="#ap"/><use transform="matrix(0.022222222222222223,0,0,0.022222222222222223,11.733333333333334,0)" xlink:href="#M"/><use transform="matrix(0.022222222222222223,0,0,0.022222222222222223,23.46666666666667,0)" xlink:href="#C"/><use transform="matrix(0.022222222222222223,0,0,0.022222222222222223,31.977777777777778,0)" xlink:href="#D"/></g><path fill="#0b0b14" d="M479-173C474-44 375 9 243 12 139 15 70-24 22-78l68-93c35 32 77 63 139 64 56 0 103-23 103-75 0-85-81-88-171-91v-104c80-1 150-11 150-85 0-46-30-71-78-70-56 1-83 28-119 56l-74-90c53-44 110-81 200-81 126 0 219 51 219 174 0 77-47 115-106 141v4c68 20 129 68 126 155" id="ar"/><use transform="matrix(0.022222222222222223,0,0,0.022222222222222223,0,0)" xlink:href="#ar" id="v"/><path d="M639-223c202 0 242-139 242-369v-526h305V0H952l-41-143h-16C834-43 709 20 551 20c-263 0-397-147-397-409v-729h305v653c1 148 42 242 180 242" id="as"/><path d="M0-1118h334l211 629c18 55 30 119 37 194h6c7-69 23-133 43-194l207-629h327L692 143C611 389 392 544 70 475V233c95 21 196 18 262-37 50-42 89-123 112-204" id="at"/><g id="w"><use transform="matrix(0.010850694444444444,0,0,0.010850694444444444,0,0)" xlink:href="#T"/><use transform="matrix(0.010850694444444444,0,0,0.010850694444444444,14.930555555555555,0)" xlink:href="#as"/><use transform="matrix(0.010850694444444444,0,0,0.010850694444444444,29.535590277777775,0)" xlink:href="#at"/></g><path d="M596-1225c-134-8-223 103-163 219 11 21 33 41 61 60s93 53 196 102c137 65 230 130 281 196s76 147 76 242c-3 286-231 426-539 426C352 20 214-9 94-68v-288c159 68 260 115 438 120 123 3 211-41 211-155 0-73-44-105-95-141-63-46-329-160-390-220-78-77-147-167-147-315 0-273 208-420 495-416 177 2 298 46 434 103l-100 241c-131-51-199-78-344-86" id="au"/><path d="M465 0H160v-1556h305V0" id="av"/><g id="x"><use transform="matrix(0.010850694444444444,0,0,0.010850694444444444,0,0)" xlink:href="#au"/><use transform="matrix(0.010850694444444444,0,0,0.010850694444444444,12.239583333333332,0)" xlink:href="#P"/><use transform="matrix(0.010850694444444444,0,0,0.010850694444444444,25.368923611111104,0)" xlink:href="#av"/><use transform="matrix(0.010850694444444444,0,0,0.010850694444444444,32.150607638888886,0)" xlink:href="#av"/></g></defs></g></svg>