<svg xmlns="http://www.w3.org/2000/svg" xmlns:xlink="http://www.w3.org/1999/xlink" xmlns:lucid="lucid" width="1440" height="1692"><g transform="translate(320 -20)" lucid:page-tab-id="F91AFJGAMrTx"><path d="M-1258.84 0h2581.68v1870.87h-2581.68z" fill="#fdf8f2"/><path d="M140 46a6 6 0 0 1 6-6h348a6 6 0 0 1 6 6v230a6 6 0 0 1-6 6H146a6 6 0 0 1-6-6z" stroke="#0b0b14" stroke-width="3" fill="#e3fae3"/><path d="M140 86.26h360m-360 128.3h360" stroke="#0b0b14" stroke-width="3" fill="none"/><use xlink:href="#a" transform="matrix(1,0,0,1,148,48) translate(142.95811631944446 24.12087673611111)"/><use xlink:href="#b" transform="matrix(1,0,0,1,152,94.26258680555556) translate(107.14388020833334 34.85828993055556)"/><use xlink:href="#c" transform="matrix(1,0,0,1,152,94.26258680555556) translate(119.37803819444446 65.12087673611111)"/><use xlink:href="#d" transform="matrix(1,0,0,1,152,94.26258680555556) translate(97.34027777777779 95.38346354166666)"/><path d="M140 386a6 6 0 0 1 6-6h348a6 6 0 0 1 6 6v200a6 6 0 0 1-6 6H146a6 6 0 0 1-6-6z" stroke="#0b0b14" stroke-width="3" fill="#e3fae3"/><path d="M140 426.26h360M140 524.3h360" stroke="#0b0b14" stroke-width="3" fill="none"/><use xlink:href="#e" transform="matrix(1,0,0,1,148,388) translate(123.43229166666667 24.12087673611111)"/><use xlink:href="#f" transform="matrix(1,0,0,1,152,434.26258680555554) translate(84.91080729166667 34.989583333333336)"/><use xlink:href="#g" transform="matrix(1,0,0,1,152,434.26258680555554) translate(77.58658854166667 65.25217013888889)"/><path d="M140 675.5a6 6 0 0 1 6-6h348a6 6 0 0 1 6 6v261a6 6 0 0 1-6 6H146a6 6 0 0 1-6-6z" stroke="#0b0b14" stroke-width="3" fill="#e3fae3"/><path d="M140 715.76h360M140 874.3h360" stroke="#0b0b14" stroke-width="3" fill="none"/><use xlink:href="#h" transform="matrix(1,0,0,1,148,677.5) translate(85.41688368055556 24.12087673611111)"/><use xlink:href="#i" transform="matrix(1,0,0,1,152,723.7625868055555) translate(145.82118055555554 34.72699652777777)"/><use xlink:href="#j" transform="matrix(1,0,0,1,152,723.7625868055555) translate(71.88997395833334 64.98958333333333)"/><use xlink:href="#k" transform="matrix(1,0,0,1,152,723.7625868055555) translate(133.478515625 64.98958333333333)"/><use xlink:href="#l" transform="matrix(1,0,0,1,152,723.7625868055555) translate(198.39822048611111 64.98958333333333)"/><use xlink:href="#m" transform="matrix(1,0,0,1,152,723.7625868055555) translate(216.41037326388889 64.98958333333333)"/><use xlink:href="#n" transform="matrix(1,0,0,1,152,723.7625868055555) translate(110.52387152777779 95.25217013888889)"/><use xlink:href="#o" transform="matrix(1,0,0,1,152,723.7625868055555) translate(116.79557291666667 125.51475694444444)"/><path d="M0 1026a6 6 0 0 1 6-6h628a6 6 0 0 1 6 6v351a6 6 0 0 1-6 6H6a6 6 0 0 1-6-6z" stroke="#0b0b14" stroke-width="3" fill="#e3fae3"/><path d="M0 1066.26h640M0 1315.6h640" stroke="#0b0b14" stroke-width="3" fill="none"/><use xlink:href="#p" transform="matrix(1,0,0,1,8,1028) translate(226.58875868055557 24.12087673611111)"/><use xlink:href="#j" transform="matrix(1,0,0,1,12,1074.2625868055557) translate(88.3602430555556 34.83311631944446)"/><use xlink:href="#q" transform="matrix(1,0,0,1,12,1074.2625868055557) translate(149.94878472222226 34.83311631944446)"/><use xlink:href="#l" transform="matrix(1,0,0,1,12,1074.2625868055557) translate(265.3459201388889 34.83311631944446)"/><use xlink:href="#r" transform="matrix(1,0,0,1,12,1074.2625868055557) translate(283.3580729166667 34.83311631944446)"/><use xlink:href="#s" transform="matrix(1,0,0,1,12,1074.2625868055557) translate(337.64409722222223 34.83311631944446)"/><use xlink:href="#l" transform="matrix(1,0,0,1,12,1074.2625868055557) translate(391.8216145833333 34.83311631944446)"/><use xlink:href="#t" transform="matrix(1,0,0,1,12,1074.2625868055557) translate(409.8337673611111 34.83311631944446)"/><use xlink:href="#u" transform="matrix(1,0,0,1,12,1074.2625868055557) translate(465.1397569444444 34.83311631944446)"/><use xlink:href="#v" transform="matrix(1,0,0,1,12,1074.2625868055557) translate(246.56336805555554 65.09570312500001)"/><use xlink:href="#w" transform="matrix(1,0,0,1,12,1074.2625868055557) translate(241.35503472222223 95.35828993055557)"/><use xlink:href="#x" transform="matrix(1,0,0,1,12,1074.2625868055557) translate(230.35243055555554 125.62087673611113)"/><use xlink:href="#y" transform="matrix(1,0,0,1,12,1074.2625868055557) translate(225.14409722222223 155.88346354166669)"/><use xlink:href="#z" transform="matrix(1,0,0,1,12,1074.2625868055557) translate(205.18424479166669 186.14605034722223)"/><use xlink:href="#A" transform="matrix(1,0,0,1,12,1074.2625868055557) translate(308 216.40863715277777)"/><path d="M140 1486a6 6 0 0 1 6-6h348a6 6 0 0 1 6 6v200a6 6 0 0 1-6 6H146a6 6 0 0 1-6-6z" stroke="#0b0b14" stroke-width="3" fill="#e3fae3"/><path d="M140 1526.26h360m-360 98.03h360" stroke="#0b0b14" stroke-width="3" fill="none"/><use xlink:href="#B" transform="matrix(1,0,0,1,148,1488) translate(46.40321180555556 24.12087673611111)"/><use xlink:href="#C" transform="matrix(1,0,0,1,152,1534.2625868055557) translate(122.58984375 34.989583333333336)"/><use xlink:href="#D" transform="matrix(1,0,0,1,152,1534.2625868055557) translate(125.34592013888889 65.25217013888889)"/><path d="M-300 666a6 6 0 0 1 6-6H54a6 6 0 0 1 6 6v170a6 6 0 0 1-6 6h-348a6 6 0 0 1-6-6z" stroke="#0b0b14" stroke-width="3" fill="#e3fae3"/><path d="M-300 706.26H60m-360 67.76H60" stroke="#0b0b14" stroke-width="3" fill="none"/><use xlink:href="#E" transform="matrix(1,0,0,1,-292,668) translate(82.91579861111113 24.12087673611111)"/><use xlink:href="#F" transform="matrix(1,0,0,1,-288,714.2625868055555) translate(24.97157118055557 34.620876736111114)"/><use xlink:href="#G" transform="matrix(1,0,0,1,-288,714.2625868055555) translate(124.93901909722224 34.620876736111114)"/><path d="M320 285.5V347" stroke="#232f3e" stroke-width="4" fill="none"/><path d="M322 285.55h-4v-2.05h4z" stroke="#232f3e" stroke-width=".05" fill="#232f3e"/><path d="M320 375.67l-14.85-14.85L320 345.67l14.85 15.15z" stroke="#232f3e" stroke-width="4" fill="#232f3e"/><path d="M320 595v41.88" stroke="#232f3e" stroke-width="3" fill="none"/><path d="M321.5 595.04h-3v-1.54h3z" stroke="#232f3e" stroke-width=".05" fill="#232f3e"/><path d="M320 665.88l-14.85-14.85L320 635.88l14.85 15.15z" stroke="#232f3e" stroke-width="3" fill="#232f3e"/><path d="M137 467.75h-251a6 6 0 0 0-6 6v153.63" stroke="#232f3e" stroke-width="3" fill="none"/><path d="M138.5 469.25h-1.54v-3h1.54z" stroke="#232f3e" stroke-width=".05" fill="#232f3e"/><path d="M-120 656.38l-14.85-14.85 14.85-15.15 14.85 15.15z" stroke="#232f3e" stroke-width="3" fill="#232f3e"/><path d="M320 945.5v41.88" stroke="#232f3e" stroke-width="3" fill="none"/><path d="M321.5 945.54h-3V944h3z" stroke="#232f3e" stroke-width=".05" fill="#232f3e"/><path d="M320 1016.38l-14.85-14.85L320 986.38l14.85 15.15z" stroke="#232f3e" stroke-width="3" fill="#232f3e"/><path d="M320 1386v61.38" stroke="#232f3e" stroke-width="3" fill="none"/><path d="M321.5 1386.04h-3v-1.54h3z" stroke="#232f3e" stroke-width=".05" fill="#232f3e"/><path d="M320 1476.38l-14.85-14.85 14.85-15.15 14.85 15.15z" stroke="#232f3e" stroke-width="3" fill="#232f3e"/><path d="M640 386a6 6 0 0 1 6-6h348a6 6 0 0 1 6 6v170a6 6 0 0 1-6 6H646a6 6 0 0 1-6-6z" stroke="#0b0b14" stroke-width="3" fill="#e3fae3"/><path d="M640 426.26h360m-360 67.76h360" stroke="#0b0b14" stroke-width="3" fill="none"/><g><use xlink:href="#H" transform="matrix(1,0,0,1,648,388) translate(100.4396701388889 24.12087673611111)"/></g><path d="M502.74 161.85l300.23 205.02" stroke="#232f3e" stroke-width="3" fill="none"/><path d="M503.62 160.63l-1.7 2.48-.42-.28v-3.64z" stroke="#232f3e" stroke-width=".05" fill="#232f3e"/><path d="M816 375.76l-14.4-4.2 5.22-7.67z" stroke="#232f3e" stroke-width="3" fill="#232f3e"/><path d="M640 666a6 6 0 0 1 6-6h348a6 6 0 0 1 6 6v170a6 6 0 0 1-6 6H646a6 6 0 0 1-6-6z" stroke="#0b0b14" stroke-width="3" fill="#e3fae3"/><path d="M640 706.26h360m-360 67.76h360" stroke="#0b0b14" stroke-width="3" fill="none"/><g><use xlink:href="#I" transform="matrix(1,0,0,1,648,668) translate(149.9296875 24.12087673611111)"/></g><path d="M820 565v62.38" stroke="#232f3e" stroke-width="3" fill="none"/><path d="M821.5 565.04h-3v-1.54h3z" stroke="#232f3e" stroke-width=".05" fill="#232f3e"/><path d="M820 656.38l-14.85-14.85L820 626.38l14.85 15.15z" stroke="#232f3e" stroke-width="3" fill="#232f3e"/><path d="M740 1026a6 6 0 0 1 6-6h348a6 6 0 0 1 6 6v291a6 6 0 0 1-6 6H746a6 6 0 0 1-6-6z" stroke="#0b0b14" stroke-width="3" fill="#e3fae3"/><path d="M740 1066.26h360m-360 188.82h360" stroke="#0b0b14" stroke-width="3" fill="none"/><g><use xlink:href="#J" transform="matrix(1,0,0,1,748,1028) translate(56.36414930555556 24.12087673611111)"/></g><g><use xlink:href="#K" transform="matrix(1,0,0,1,752,1074.2625868055557) translate(122.58984375 34.595703125)"/><use xlink:href="#L" transform="matrix(1,0,0,1,752,1074.2625868055557) translate(100.59548611111111 64.85828993055556)"/><use xlink:href="#M" transform="matrix(1,0,0,1,752,1074.2625868055557) translate(108.47851562500001 95.12087673611111)"/><use xlink:href="#N" transform="matrix(1,0,0,1,752,1074.2625868055557) translate(103.04231770833333 125.38346354166667)"/><use xlink:href="#O" transform="matrix(1,0,0,1,752,1074.2625868055557) translate(166.81184895833331 125.38346354166667)"/><use xlink:href="#P" transform="matrix(1,0,0,1,752,1074.2625868055557) translate(96.271484375 155.64605034722223)"/><use xlink:href="#Q" transform="matrix(1,0,0,1,752,1074.2625868055557) translate(173.58268229166666 155.64605034722223)"/></g><path d="M502.87 834.6l398.26 175.58" stroke="#232f3e" stroke-width="3" fill="none"/><path d="M503.5 833.25l-1.2 2.74-.8-.36v-3.28z" stroke="#232f3e" stroke-width=".05" fill="#232f3e"/><path d="M915.56 1016.54l-14.92-1.5 3.74-8.5z" stroke="#232f3e" stroke-width="3" fill="#232f3e"/><defs><path fill="#0b0b14" d="M596-1225c-134-8-223 103-163 219 11 21 33 41 61 60s93 53 196 102c137 65 230 130 281 196s76 147 76 242c-3 286-231 426-539 426C352 20 214-9 94-68v-288c159 68 260 115 438 120 123 3 211-41 211-155 0-73-44-105-95-141-63-46-329-160-390-220-78-77-147-167-147-315 0-273 208-420 495-416 177 2 298 46 434 103l-100 241c-131-51-199-78-344-86" id="R"/><path fill="#0b0b14" d="M498-350c-2 85 52 126 133 127 53 0 117-12 192-35v227C747 3 654 20 543 20c-247 0-350-124-350-370v-539H47v-129l168-102 88-236h195v238h313v229H498v539" id="S"/><path fill="#0b0b14" d="M618-1141c286 0 465 117 465 396V0H870l-59-152h-8C704-33 632 18 432 20 216 22 86-113 86-334c0-119 44-202 124-262 109-82 356-99 570-100 11-142-39-219-174-219-89 0-194 27-315 81l-101-206c129-67 271-101 428-101zm-71 938c137 0 235-88 233-223v-92c-190 3-382 4-381 186 0 86 49 129 148 129" id="T"/><path fill="#0b0b14" d="M836-686c0-141-77-236-213-236-140 0-206 98-215 236h428zm223 627C946-4 838 19 666 20 308 22 92-191 92-551c0-356 187-588 529-588 314 0 504 195 501 508v148H401c5 169 104 277 279 276 158-2 261-33 379-88v236" id="U"/><g id="a"><use transform="matrix(0.010850694444444444,0,0,0.010850694444444444,0,0)" xlink:href="#R"/><use transform="matrix(0.010850694444444444,0,0,0.010850694444444444,12.239583333333332,0)" xlink:href="#S"/><use transform="matrix(0.010850694444444444,0,0,0.010850694444444444,21.885850694444443,0)" xlink:href="#T"/><use transform="matrix(0.010850694444444444,0,0,0.010850694444444444,35.30815972222222,0)" xlink:href="#S"/><use transform="matrix(0.010850694444444444,0,0,0.010850694444444444,44.95442708333333,0)" xlink:href="#U"/></g><path fill="#0b0b14" d="M836-831c-99-39-182-77-306-82-139-6-173 83-92 144 51 39 327 139 383 188 71 62 119 126 119 249C940-74 747 21 463 20 305 20 202 0 94-45v-252c93 45 253 94 379 94 111 0 166-32 166-96 0-68-41-76-98-109-79-46-276-119-333-167-74-61-116-125-116-252 0-368 555-367 836-224" id="V"/><path fill="#0b0b14" d="M451-930c71-134 228-244 436-200l-23 286c-220-45-399 61-399 275V0H160v-1118h231l45 188h15" id="W"/><path fill="#0b0b14" d="M549-1139c43 0 163 15 194 21h390v155l-175 45c32 50 48 106 48 168 2 289-261 415-574 373-89 78-53 146 121 146h190c229-1 375 93 377 311 0 131-55 232-164 304S691 492 487 492c-156 0-275-28-357-82S6 280 6 182C6 26 113-51 254-84c-55-22-119-89-117-162 3-107 68-140 144-190C169-483 89-600 90-756c1-259 185-383 459-383zM467 14c-100-2-199 51-197 144 3 184 368 146 487 90 62-30 93-71 93-123 0-42-19-70-55-87-64-30-222-23-328-24zm82-569c118 0 165-80 166-197 0-135-55-202-166-202-112 0-168 67-168 202 0 117 52 197 168 197" id="X"/><path fill="#0b0b14" d="M0-1118h334l211 629c18 55 30 119 37 194h6c7-69 23-133 43-194l207-629h327L692 143C611 389 392 544 70 475V233c95 21 196 18 262-37 50-42 89-123 112-204" id="Y"/><path fill="#0b0b14" d="M846 324H-4V184h850v140" id="Z"/><path fill="#0b0b14" d="M479-1407c-1 99-61 150-166 150-111 0-166-50-166-150 0-99 55-149 166-149s166 50 166 149zM465 0H160v-1118h305V0" id="aa"/><path fill="#0b0b14" d="M92-557c0-327 132-582 430-582 141 0 248 55 322 164h10c-38-188-18-371-23-581h306V0H903l-59-145h-13C762-35 656 20 514 20 222 20 92-237 92-557zm309 4c0 190 54 330 220 330 191 0 231-123 231-332 0-214-44-336-236-336-161 0-215 151-215 338" id="ab"/><g id="b"><use transform="matrix(0.010850694444444444,0,0,0.010850694444444444,0,0)" xlink:href="#V"/><use transform="matrix(0.010850694444444444,0,0,0.010850694444444444,11.046006944444445,0)" xlink:href="#S"/><use transform="matrix(0.010850694444444444,0,0,0.010850694444444444,20.692274305555557,0)" xlink:href="#W"/><use transform="matrix(0.010850694444444444,0,0,0.010850694444444444,30.338541666666664,0)" xlink:href="#T"/><use transform="matrix(0.010850694444444444,0,0,0.010850694444444444,43.76085069444444,0)" xlink:href="#S"/><use transform="matrix(0.010850694444444444,0,0,0.010850694444444444,53.40711805555556,0)" xlink:href="#U"/><use transform="matrix(0.010850694444444444,0,0,0.010850694444444444,66.53645833333333,0)" xlink:href="#X"/><use transform="matrix(0.010850694444444444,0,0,0.010850694444444444,79.09071180555554,0)" xlink:href="#Y"/><use transform="matrix(0.010850694444444444,0,0,0.010850694444444444,91.73177083333331,0)" xlink:href="#Z"/><use transform="matrix(0.010850694444444444,0,0,0.010850694444444444,100.86805555555556,0)" xlink:href="#aa"/><use transform="matrix(0.010850694444444444,0,0,0.010850694444444444,107.64973958333331,0)" xlink:href="#ab"/></g><path fill="#0b0b14" d="M782-1139c293 0 422 256 422 578 0 230-70 418-202 512-65 46-141 69-228 69-131 0-234-48-309-143h-16c32 222 9 383 16 615H160v-1610h248l43 145h14c71-111 177-166 317-166zm111 574c0-190-40-330-209-330-184 0-221 128-219 332 2 209 40 336 223 336 137 0 205-113 205-338" id="ac"/><path fill="#0b0b14" d="M633-893c-183 0-230 133-230 332s48 336 232 336c183 0 229-137 229-336s-47-332-231-332zm4-246c347 5 535 225 539 578S978 25 631 20C283 15 96-208 92-561c-4-355 196-583 545-578" id="ad"/><path fill="#0b0b14" d="M637-1325c-111 0-131 91-123 207h264v229H514V0H209v-889H41v-147l168-82c-18-311 94-449 395-449 105 0 199 16 281 47l-78 224c-61-19-118-29-170-29" id="ae"/><path fill="#0b0b14" d="M465 0H160v-1556h305V0" id="af"/><g id="c"><use transform="matrix(0.010850694444444444,0,0,0.010850694444444444,0,0)" xlink:href="#ac"/><use transform="matrix(0.010850694444444444,0,0,0.010850694444444444,14.0625,0)" xlink:href="#ad"/><use transform="matrix(0.010850694444444444,0,0,0.010850694444444444,27.82118055555556,0)" xlink:href="#W"/><use transform="matrix(0.010850694444444444,0,0,0.010850694444444444,37.912326388888886,0)" xlink:href="#S"/><use transform="matrix(0.010850694444444444,0,0,0.010850694444444444,47.55859375,0)" xlink:href="#ae"/><use transform="matrix(0.010850694444444444,0,0,0.010850694444444444,56.16319444444444,0)" xlink:href="#ad"/><use transform="matrix(0.010850694444444444,0,0,0.010850694444444444,69.921875,0)" xlink:href="#af"/><use transform="matrix(0.010850694444444444,0,0,0.010850694444444444,76.70355902777777,0)" xlink:href="#aa"/><use transform="matrix(0.010850694444444444,0,0,0.010850694444444444,83.48524305555554,0)" xlink:href="#ad"/></g><path fill="#0b0b14" d="M426 0L0-1118h319l216 637c24 81 39 157 45 229h6c3-64 15-141 45-229l215-637h319L739 0H426" id="ag"/><path fill="#0b0b14" d="M639-223c202 0 242-139 242-369v-526h305V0H952l-41-143h-16C834-43 709 20 551 20c-263 0-397-147-397-409v-729h305v653c1 148 42 242 180 242" id="ah"/><path fill="#0b0b14" d="M795-1139c261-1 398 148 397 410V0H887v-653c-1-148-42-242-180-242-202 0-242 139-242 369V0H160v-1118h233l41 143h17c62-102 185-163 344-164" id="ai"/><g id="d"><use transform="matrix(0.010850694444444444,0,0,0.010850694444444444,0,0)" xlink:href="#ag"/><use transform="matrix(0.010850694444444444,0,0,0.010850694444444444,12.641059027777777,0)" xlink:href="#aa"/><use transform="matrix(0.010850694444444444,0,0,0.010850694444444444,19.422743055555554,0)" xlink:href="#V"/><use transform="matrix(0.010850694444444444,0,0,0.010850694444444444,30.46875,0)" xlink:href="#ah"/><use transform="matrix(0.010850694444444444,0,0,0.010850694444444444,45.07378472222222,0)" xlink:href="#T"/><use transform="matrix(0.010850694444444444,0,0,0.010850694444444444,58.49609375,0)" xlink:href="#af"/><use transform="matrix(0.010850694444444444,0,0,0.010850694444444444,65.27777777777777,0)" xlink:href="#aa"/><use transform="matrix(0.010850694444444444,0,0,0.010850694444444444,72.05946180555554,0)" xlink:href="#V"/><use transform="matrix(0.010850694444444444,0,0,0.010850694444444444,83.10546874999999,0)" xlink:href="#T"/><use transform="matrix(0.010850694444444444,0,0,0.010850694444444444,96.52777777777776,0)" xlink:href="#S"/><use transform="matrix(0.010850694444444444,0,0,0.010850694444444444,106.17404513888887,0)" xlink:href="#aa"/><use transform="matrix(0.010850694444444444,0,0,0.010850694444444444,112.95572916666664,0)" xlink:href="#ad"/><use transform="matrix(0.010850694444444444,0,0,0.010850694444444444,126.7144097222222,0)" xlink:href="#ai"/></g><path fill="#0b0b14" d="M881-995c0-154-85-213-246-213H494v434h102c173 1 285-62 285-221zm-230-467c334-1 543 136 543 456 0 330-225 489-567 486H494V0H184v-1462h467" id="aj"/><g id="e"><use transform="matrix(0.010850694444444444,0,0,0.010850694444444444,0,0)" xlink:href="#aj"/><use transform="matrix(0.010850694444444444,0,0,0.010850694444444444,13.953993055555555,0)" xlink:href="#ad"/><use transform="matrix(0.010850694444444444,0,0,0.010850694444444444,27.71267361111111,0)" xlink:href="#W"/><use transform="matrix(0.010850694444444444,0,0,0.010850694444444444,37.80381944444444,0)" xlink:href="#S"/><use transform="matrix(0.010850694444444444,0,0,0.010850694444444444,47.45008680555556,0)" xlink:href="#ae"/><use transform="matrix(0.010850694444444444,0,0,0.010850694444444444,56.0546875,0)" xlink:href="#ad"/><use transform="matrix(0.010850694444444444,0,0,0.010850694444444444,69.81336805555556,0)" xlink:href="#af"/><use transform="matrix(0.010850694444444444,0,0,0.010850694444444444,76.59505208333333,0)" xlink:href="#aa"/><use transform="matrix(0.010850694444444444,0,0,0.010850694444444444,83.3767361111111,0)" xlink:href="#ad"/></g><g id="f"><use transform="matrix(0.010850694444444444,0,0,0.010850694444444444,0,0)" xlink:href="#ad"/><use transform="matrix(0.010850694444444444,0,0,0.010850694444444444,13.758680555555555,0)" xlink:href="#ac"/><use transform="matrix(0.010850694444444444,0,0,0.010850694444444444,27.82118055555556,0)" xlink:href="#U"/><use transform="matrix(0.010850694444444444,0,0,0.010850694444444444,40.950520833333336,0)" xlink:href="#ai"/><use transform="matrix(0.010850694444444444,0,0,0.010850694444444444,55.55555555555556,0)" xlink:href="#Z"/><use transform="matrix(0.010850694444444444,0,0,0.010850694444444444,64.69184027777777,0)" xlink:href="#ac"/><use transform="matrix(0.010850694444444444,0,0,0.010850694444444444,78.75434027777777,0)" xlink:href="#ad"/><use transform="matrix(0.010850694444444444,0,0,0.010850694444444444,92.51302083333333,0)" xlink:href="#V"/><use transform="matrix(0.010850694444444444,0,0,0.010850694444444444,103.55902777777777,0)" xlink:href="#aa"/><use transform="matrix(0.010850694444444444,0,0,0.010850694444444444,110.34071180555556,0)" xlink:href="#S"/><use transform="matrix(0.010850694444444444,0,0,0.010850694444444444,119.98697916666666,0)" xlink:href="#aa"/><use transform="matrix(0.010850694444444444,0,0,0.010850694444444444,126.76866319444441,0)" xlink:href="#ad"/><use transform="matrix(0.010850694444444444,0,0,0.010850694444444444,140.52734374999997,0)" xlink:href="#ai"/><use transform="matrix(0.010850694444444444,0,0,0.010850694444444444,155.1323784722222,0)" xlink:href="#V"/></g><path fill="#0b0b14" d="M954-63C853 0 774 20 614 20 266 20 92-171 92-553c0-369 188-586 549-586 129 0 245 25 348 76l-90 236c-84-31-156-66-258-66-159 0-238 113-238 338 0 219 79 328 238 328 137 0 223-38 313-97v261" id="ak"/><g id="g"><use transform="matrix(0.010850694444444444,0,0,0.010850694444444444,0,0)" xlink:href="#ak"/><use transform="matrix(0.010850694444444444,0,0,0.010850694444444444,11.42578125,0)" xlink:href="#af"/><use transform="matrix(0.010850694444444444,0,0,0.010850694444444444,18.20746527777778,0)" xlink:href="#ad"/><use transform="matrix(0.010850694444444444,0,0,0.010850694444444444,31.966145833333336,0)" xlink:href="#V"/><use transform="matrix(0.010850694444444444,0,0,0.010850694444444444,43.01215277777778,0)" xlink:href="#U"/><use transform="matrix(0.010850694444444444,0,0,0.010850694444444444,56.14149305555555,0)" xlink:href="#ab"/><use transform="matrix(0.010850694444444444,0,0,0.010850694444444444,70.20399305555556,0)" xlink:href="#Z"/><use transform="matrix(0.010850694444444444,0,0,0.010850694444444444,79.34027777777777,0)" xlink:href="#ac"/><use transform="matrix(0.010850694444444444,0,0,0.010850694444444444,93.40277777777777,0)" xlink:href="#ad"/><use transform="matrix(0.010850694444444444,0,0,0.010850694444444444,107.16145833333333,0)" xlink:href="#V"/><use transform="matrix(0.010850694444444444,0,0,0.010850694444444444,118.20746527777777,0)" xlink:href="#aa"/><use transform="matrix(0.010850694444444444,0,0,0.010850694444444444,124.98914930555556,0)" xlink:href="#S"/><use transform="matrix(0.010850694444444444,0,0,0.010850694444444444,134.63541666666666,0)" xlink:href="#aa"/><use transform="matrix(0.010850694444444444,0,0,0.010850694444444444,141.41710069444443,0)" xlink:href="#ad"/><use transform="matrix(0.010850694444444444,0,0,0.010850694444444444,155.17578124999997,0)" xlink:href="#ai"/><use transform="matrix(0.010850694444444444,0,0,0.010850694444444444,169.7808159722222,0)" xlink:href="#V"/></g><path fill="#0b0b14" d="M748 0H438v-1204H41v-258h1104v258H748V0" id="al"/><g id="h"><use transform="matrix(0.010850694444444444,0,0,0.010850694444444444,0,0)" xlink:href="#al"/><use transform="matrix(0.010850694444444444,0,0,0.010850694444444444,11.762152777777777,0)" xlink:href="#W"/><use transform="matrix(0.010850694444444444,0,0,0.010850694444444444,21.408420138888886,0)" xlink:href="#T"/><use transform="matrix(0.010850694444444444,0,0,0.010850694444444444,34.830729166666664,0)" xlink:href="#ab"/><use transform="matrix(0.010850694444444444,0,0,0.010850694444444444,48.893229166666664,0)" xlink:href="#aa"/><use transform="matrix(0.010850694444444444,0,0,0.010850694444444444,55.67491319444444,0)" xlink:href="#ai"/><use transform="matrix(0.010850694444444444,0,0,0.010850694444444444,70.27994791666666,0)" xlink:href="#X"/><use transform="matrix(0.010850694444444444,0,0,0.010850694444444444,82.83420138888889,0)" xlink:href="#aj"/><use transform="matrix(0.010850694444444444,0,0,0.010850694444444444,96.78819444444444,0)" xlink:href="#ad"/><use transform="matrix(0.010850694444444444,0,0,0.010850694444444444,110.546875,0)" xlink:href="#V"/><use transform="matrix(0.010850694444444444,0,0,0.010850694444444444,121.59288194444444,0)" xlink:href="#aa"/><use transform="matrix(0.010850694444444444,0,0,0.010850694444444444,128.37456597222223,0)" xlink:href="#S"/><use transform="matrix(0.010850694444444444,0,0,0.010850694444444444,138.02083333333334,0)" xlink:href="#aa"/><use transform="matrix(0.010850694444444444,0,0,0.010850694444444444,144.80251736111111,0)" xlink:href="#ad"/><use transform="matrix(0.010850694444444444,0,0,0.010850694444444444,158.56119791666666,0)" xlink:href="#ai"/></g><g id="i"><use transform="matrix(0.010850694444444444,0,0,0.010850694444444444,0,0)" xlink:href="#ac"/><use transform="matrix(0.010850694444444444,0,0,0.010850694444444444,14.0625,0)" xlink:href="#T"/><use transform="matrix(0.010850694444444444,0,0,0.010850694444444444,27.48480902777778,0)" xlink:href="#aa"/><use transform="matrix(0.010850694444444444,0,0,0.010850694444444444,34.26649305555556,0)" xlink:href="#W"/></g><path fill="#0b0b14" d="M293 27c-110 0-177-61-176-170 0-113 63-170 176-170 109-1 174 61 174 170 0 105-67 170-174 170zm0-826c-110 0-176-60-176-170 0-113 63-170 176-170 109-1 174 61 174 170 0 107-67 170-174 170" id="am"/><g id="j"><use transform="matrix(0.010850694444444444,0,0,0.010850694444444444,0,0)" xlink:href="#S"/><use transform="matrix(0.010850694444444444,0,0,0.010850694444444444,9.64626736111111,0)" xlink:href="#Y"/><use transform="matrix(0.010850694444444444,0,0,0.010850694444444444,22.28732638888889,0)" xlink:href="#ac"/><use transform="matrix(0.010850694444444444,0,0,0.010850694444444444,36.349826388888886,0)" xlink:href="#U"/><use transform="matrix(0.010850694444444444,0,0,0.010850694444444444,49.479166666666664,0)" xlink:href="#am"/></g><path fill="#0b0b14" d="M791-1139c262-1 402 148 401 410V0H887v-653c0-161-60-242-180-242-201 0-242 142-242 369V0H160v-1556h305c-1 210 6 368-14 581h16c68-109 176-164 324-164" id="an"/><g id="k"><use transform="matrix(0.010850694444444444,0,0,0.010850694444444444,0,0)" xlink:href="#V"/><use transform="matrix(0.010850694444444444,0,0,0.010850694444444444,11.046006944444445,0)" xlink:href="#an"/><use transform="matrix(0.010850694444444444,0,0,0.010850694444444444,25.651041666666664,0)" xlink:href="#ad"/><use transform="matrix(0.010850694444444444,0,0,0.010850694444444444,39.40972222222222,0)" xlink:href="#W"/><use transform="matrix(0.010850694444444444,0,0,0.010850694444444444,49.50086805555556,0)" xlink:href="#S"/></g><path fill="#0b0b14" d="M455-1550h219V465H455v-2015" id="ao"/><use transform="matrix(0.010850694444444444,0,0,0.010850694444444444,0,0)" xlink:href="#ao" id="l"/><g id="m"><use transform="matrix(0.010850694444444444,0,0,0.010850694444444444,0,0)" xlink:href="#af"/><use transform="matrix(0.010850694444444444,0,0,0.010850694444444444,6.781684027777778,0)" xlink:href="#ad"/><use transform="matrix(0.010850694444444444,0,0,0.010850694444444444,20.540364583333332,0)" xlink:href="#ai"/><use transform="matrix(0.010850694444444444,0,0,0.010850694444444444,35.14539930555556,0)" xlink:href="#X"/></g><g id="n"><use transform="matrix(0.010850694444444444,0,0,0.010850694444444444,0,0)" xlink:href="#ad"/><use transform="matrix(0.010850694444444444,0,0,0.010850694444444444,13.758680555555555,0)" xlink:href="#ac"/><use transform="matrix(0.010850694444444444,0,0,0.010850694444444444,27.82118055555556,0)" xlink:href="#U"/><use transform="matrix(0.010850694444444444,0,0,0.010850694444444444,40.950520833333336,0)" xlink:href="#ai"/><use transform="matrix(0.010850694444444444,0,0,0.010850694444444444,55.55555555555556,0)" xlink:href="#U"/><use transform="matrix(0.010850694444444444,0,0,0.010850694444444444,68.68489583333333,0)" xlink:href="#ab"/><use transform="matrix(0.010850694444444444,0,0,0.010850694444444444,82.74739583333333,0)" xlink:href="#Z"/><use transform="matrix(0.010850694444444444,0,0,0.010850694444444444,91.88368055555556,0)" xlink:href="#T"/><use transform="matrix(0.010850694444444444,0,0,0.010850694444444444,105.30598958333331,0)" xlink:href="#S"/></g><g id="o"><use transform="matrix(0.010850694444444444,0,0,0.010850694444444444,0,0)" xlink:href="#ak"/><use transform="matrix(0.010850694444444444,0,0,0.010850694444444444,11.42578125,0)" xlink:href="#af"/><use transform="matrix(0.010850694444444444,0,0,0.010850694444444444,18.20746527777778,0)" xlink:href="#ad"/><use transform="matrix(0.010850694444444444,0,0,0.010850694444444444,31.966145833333336,0)" xlink:href="#V"/><use transform="matrix(0.010850694444444444,0,0,0.010850694444444444,43.01215277777778,0)" xlink:href="#U"/><use transform="matrix(0.010850694444444444,0,0,0.010850694444444444,56.14149305555555,0)" xlink:href="#ab"/><use transform="matrix(0.010850694444444444,0,0,0.010850694444444444,70.20399305555556,0)" xlink:href="#Z"/><use transform="matrix(0.010850694444444444,0,0,0.010850694444444444,79.34027777777777,0)" xlink:href="#T"/><use transform="matrix(0.010850694444444444,0,0,0.010850694444444444,92.76258680555556,0)" xlink:href="#S"/></g><path fill="#0b0b14" d="M1026 0H184v-1462h842v254H494v321h495v254H494v377h532V0" id="ap"/><path fill="#0b0b14" d="M389-571L29-1118h346l217 356 219-356h346L793-571 1174 0H827L592-383 356 0H10" id="aq"/><g id="p"><use transform="matrix(0.010850694444444444,0,0,0.010850694444444444,0,0)" xlink:href="#al"/><use transform="matrix(0.010850694444444444,0,0,0.010850694444444444,11.762152777777777,0)" xlink:href="#W"/><use transform="matrix(0.010850694444444444,0,0,0.010850694444444444,21.408420138888886,0)" xlink:href="#T"/><use transform="matrix(0.010850694444444444,0,0,0.010850694444444444,34.830729166666664,0)" xlink:href="#ab"/><use transform="matrix(0.010850694444444444,0,0,0.010850694444444444,48.893229166666664,0)" xlink:href="#U"/><use transform="matrix(0.010850694444444444,0,0,0.010850694444444444,62.02256944444444,0)" xlink:href="#ap"/><use transform="matrix(0.010850694444444444,0,0,0.010850694444444444,74.46831597222221,0)" xlink:href="#aq"/><use transform="matrix(0.010850694444444444,0,0,0.010850694444444444,86.8706597222222,0)" xlink:href="#U"/><use transform="matrix(0.010850694444444444,0,0,0.010850694444444444,99.99999999999997,0)" xlink:href="#ak"/><use transform="matrix(0.010850694444444444,0,0,0.010850694444444444,111.42578124999997,0)" xlink:href="#ah"/><use transform="matrix(0.010850694444444444,0,0,0.010850694444444444,126.0308159722222,0)" xlink:href="#S"/><use transform="matrix(0.010850694444444444,0,0,0.010850694444444444,135.67708333333331,0)" xlink:href="#aa"/><use transform="matrix(0.010850694444444444,0,0,0.010850694444444444,142.4587673611111,0)" xlink:href="#ad"/><use transform="matrix(0.010850694444444444,0,0,0.010850694444444444,156.21744791666663,0)" xlink:href="#ai"/></g><path fill="#0b0b14" d="M782-1139c292 0 422 259 422 578 0 185-39 328-116 429S907 20 774 20c-131 0-234-48-309-143h-21L393 0H160v-1556h305c-3 221 8 361-12 583h12c71-111 177-166 317-166zM465-596c-3 221 29 369 223 369 63 0 110-31 150-87 71-99 72-401-1-498-40-53-88-83-153-83-174 0-216 109-219 299" id="ar"/><g id="q"><use transform="matrix(0.010850694444444444,0,0,0.010850694444444444,0,0)" xlink:href="#W"/><use transform="matrix(0.010850694444444444,0,0,0.010850694444444444,9.64626736111111,0)" xlink:href="#U"/><use transform="matrix(0.010850694444444444,0,0,0.010850694444444444,22.77560763888889,0)" xlink:href="#ar"/><use transform="matrix(0.010850694444444444,0,0,0.010850694444444444,36.838107638888886,0)" xlink:href="#T"/><use transform="matrix(0.010850694444444444,0,0,0.010850694444444444,50.260416666666664,0)" xlink:href="#af"/><use transform="matrix(0.010850694444444444,0,0,0.010850694444444444,57.04210069444444,0)" xlink:href="#T"/><use transform="matrix(0.010850694444444444,0,0,0.010850694444444444,70.46440972222221,0)" xlink:href="#ai"/><use transform="matrix(0.010850694444444444,0,0,0.010850694444444444,85.06944444444443,0)" xlink:href="#ak"/><use transform="matrix(0.010850694444444444,0,0,0.010850694444444444,96.49522569444441,0)" xlink:href="#U"/></g><g id="r"><use transform="matrix(0.010850694444444444,0,0,0.010850694444444444,0,0)" xlink:href="#V"/><use transform="matrix(0.010850694444444444,0,0,0.010850694444444444,11.046006944444445,0)" xlink:href="#S"/><use transform="matrix(0.010850694444444444,0,0,0.010850694444444444,20.692274305555557,0)" xlink:href="#ad"/><use transform="matrix(0.010850694444444444,0,0,0.010850694444444444,34.450954861111114,0)" xlink:href="#ac"/></g><g id="s"><use transform="matrix(0.010850694444444444,0,0,0.010850694444444444,0,0)" xlink:href="#af"/><use transform="matrix(0.010850694444444444,0,0,0.010850694444444444,6.781684027777778,0)" xlink:href="#ad"/><use transform="matrix(0.010850694444444444,0,0,0.010850694444444444,20.540364583333332,0)" xlink:href="#V"/><use transform="matrix(0.010850694444444444,0,0,0.010850694444444444,31.586371527777775,0)" xlink:href="#V"/></g><path fill="#0b0b14" d="M453-608l133-170 313-340h344L799-633 1270 0H918L596-453 465-348V0H160v-1556h305v694l-16 254h4" id="as"/><g id="t"><use transform="matrix(0.010850694444444444,0,0,0.010850694444444444,0,0)" xlink:href="#S"/><use transform="matrix(0.010850694444444444,0,0,0.010850694444444444,9.64626736111111,0)" xlink:href="#T"/><use transform="matrix(0.010850694444444444,0,0,0.010850694444444444,23.06857638888889,0)" xlink:href="#as"/><use transform="matrix(0.010850694444444444,0,0,0.010850694444444444,36.40407986111111,0)" xlink:href="#U"/></g><g id="u"><use transform="matrix(0.010850694444444444,0,0,0.010850694444444444,0,0)" xlink:href="#ac"/><use transform="matrix(0.010850694444444444,0,0,0.010850694444444444,14.0625,0)" xlink:href="#W"/><use transform="matrix(0.010850694444444444,0,0,0.010850694444444444,23.70876736111111,0)" xlink:href="#ad"/><use transform="matrix(0.010850694444444444,0,0,0.010850694444444444,37.467447916666664,0)" xlink:href="#ae"/><use transform="matrix(0.010850694444444444,0,0,0.010850694444444444,46.07204861111111,0)" xlink:href="#aa"/><use transform="matrix(0.010850694444444444,0,0,0.010850694444444444,52.853732638888886,0)" xlink:href="#S"/></g><g id="v"><use transform="matrix(0.010850694444444444,0,0,0.010850694444444444,0,0)" xlink:href="#ac"/><use transform="matrix(0.010850694444444444,0,0,0.010850694444444444,14.0625,0)" xlink:href="#af"/><use transform="matrix(0.010850694444444444,0,0,0.010850694444444444,20.84418402777778,0)" xlink:href="#T"/><use transform="matrix(0.010850694444444444,0,0,0.010850694444444444,34.26649305555556,0)" xlink:href="#ai"/><use transform="matrix(0.010850694444444444,0,0,0.010850694444444444,48.87152777777778,0)" xlink:href="#ai"/><use transform="matrix(0.010850694444444444,0,0,0.010850694444444444,63.4765625,0)" xlink:href="#U"/><use transform="matrix(0.010850694444444444,0,0,0.010850694444444444,76.60590277777777,0)" xlink:href="#ab"/><use transform="matrix(0.010850694444444444,0,0,0.010850694444444444,90.66840277777777,0)" xlink:href="#Z"/><use transform="matrix(0.010850694444444444,0,0,0.010850694444444444,99.8046875,0)" xlink:href="#T"/><use transform="matrix(0.010850694444444444,0,0,0.010850694444444444,113.22699652777777,0)" xlink:href="#S"/></g><g id="w"><use transform="matrix(0.010850694444444444,0,0,0.010850694444444444,0,0)" xlink:href="#U"/><use transform="matrix(0.010850694444444444,0,0,0.010850694444444444,12.684461805555555,0)" xlink:href="#aq"/><use transform="matrix(0.010850694444444444,0,0,0.010850694444444444,25.08680555555556,0)" xlink:href="#U"/><use transform="matrix(0.010850694444444444,0,0,0.010850694444444444,38.216145833333336,0)" xlink:href="#ak"/><use transform="matrix(0.010850694444444444,0,0,0.010850694444444444,49.64192708333333,0)" xlink:href="#ah"/><use transform="matrix(0.010850694444444444,0,0,0.010850694444444444,64.24696180555556,0)" xlink:href="#S"/><use transform="matrix(0.010850694444444444,0,0,0.010850694444444444,73.89322916666667,0)" xlink:href="#U"/><use transform="matrix(0.010850694444444444,0,0,0.010850694444444444,87.02256944444444,0)" xlink:href="#ab"/><use transform="matrix(0.010850694444444444,0,0,0.010850694444444444,101.08506944444444,0)" xlink:href="#Z"/><use transform="matrix(0.010850694444444444,0,0,0.010850694444444444,110.22135416666666,0)" xlink:href="#T"/><use transform="matrix(0.010850694444444444,0,0,0.010850694444444444,123.64366319444441,0)" xlink:href="#S"/></g><g id="x"><use transform="matrix(0.010850694444444444,0,0,0.010850694444444444,0,0)" xlink:href="#ac"/><use transform="matrix(0.010850694444444444,0,0,0.010850694444444444,14.0625,0)" xlink:href="#af"/><use transform="matrix(0.010850694444444444,0,0,0.010850694444444444,20.84418402777778,0)" xlink:href="#T"/><use transform="matrix(0.010850694444444444,0,0,0.010850694444444444,34.26649305555556,0)" xlink:href="#ai"/><use transform="matrix(0.010850694444444444,0,0,0.010850694444444444,48.87152777777778,0)" xlink:href="#ai"/><use transform="matrix(0.010850694444444444,0,0,0.010850694444444444,63.4765625,0)" xlink:href="#U"/><use transform="matrix(0.010850694444444444,0,0,0.010850694444444444,76.60590277777777,0)" xlink:href="#ab"/><use transform="matrix(0.010850694444444444,0,0,0.010850694444444444,90.66840277777777,0)" xlink:href="#Z"/><use transform="matrix(0.010850694444444444,0,0,0.010850694444444444,99.8046875,0)" xlink:href="#ac"/><use transform="matrix(0.010850694444444444,0,0,0.010850694444444444,113.8671875,0)" xlink:href="#W"/><use transform="matrix(0.010850694444444444,0,0,0.010850694444444444,123.95833333333333,0)" xlink:href="#aa"/><use transform="matrix(0.010850694444444444,0,0,0.010850694444444444,130.74001736111111,0)" xlink:href="#ak"/><use transform="matrix(0.010850694444444444,0,0,0.010850694444444444,142.16579861111111,0)" xlink:href="#U"/></g><g id="y"><use transform="matrix(0.010850694444444444,0,0,0.010850694444444444,0,0)" xlink:href="#U"/><use transform="matrix(0.010850694444444444,0,0,0.010850694444444444,12.684461805555555,0)" xlink:href="#aq"/><use transform="matrix(0.010850694444444444,0,0,0.010850694444444444,25.08680555555556,0)" xlink:href="#U"/><use transform="matrix(0.010850694444444444,0,0,0.010850694444444444,38.216145833333336,0)" xlink:href="#ak"/><use transform="matrix(0.010850694444444444,0,0,0.010850694444444444,49.64192708333333,0)" xlink:href="#ah"/><use transform="matrix(0.010850694444444444,0,0,0.010850694444444444,64.24696180555556,0)" xlink:href="#S"/><use transform="matrix(0.010850694444444444,0,0,0.010850694444444444,73.89322916666667,0)" xlink:href="#U"/><use transform="matrix(0.010850694444444444,0,0,0.010850694444444444,87.02256944444444,0)" xlink:href="#ab"/><use transform="matrix(0.010850694444444444,0,0,0.010850694444444444,101.08506944444444,0)" xlink:href="#Z"/><use transform="matrix(0.010850694444444444,0,0,0.010850694444444444,110.22135416666666,0)" xlink:href="#ac"/><use transform="matrix(0.010850694444444444,0,0,0.010850694444444444,124.28385416666666,0)" xlink:href="#W"/><use transform="matrix(0.010850694444444444,0,0,0.010850694444444444,134.375,0)" xlink:href="#aa"/><use transform="matrix(0.010850694444444444,0,0,0.010850694444444444,141.15668402777777,0)" xlink:href="#ak"/><use transform="matrix(0.010850694444444444,0,0,0.010850694444444444,152.58246527777777,0)" xlink:href="#U"/></g><path fill="#0b0b14" d="M403-553c0 196 45 334 220 334 192 0 229-123 229-336s-44-336-234-336c-143 0-215 113-215 338zm428 408C771-45 666 20 514 20 221 20 92-235 92-557c0-325 133-582 428-582 160 0 251 63 324 164h8l27-143h258V492H831c5-223-13-428 13-637h-13" id="at"/><g id="z"><use transform="matrix(0.010850694444444444,0,0,0.010850694444444444,0,0)" xlink:href="#U"/><use transform="matrix(0.010850694444444444,0,0,0.010850694444444444,12.684461805555555,0)" xlink:href="#aq"/><use transform="matrix(0.010850694444444444,0,0,0.010850694444444444,25.08680555555556,0)" xlink:href="#U"/><use transform="matrix(0.010850694444444444,0,0,0.010850694444444444,38.216145833333336,0)" xlink:href="#ak"/><use transform="matrix(0.010850694444444444,0,0,0.010850694444444444,49.64192708333333,0)" xlink:href="#ah"/><use transform="matrix(0.010850694444444444,0,0,0.010850694444444444,64.24696180555556,0)" xlink:href="#S"/><use transform="matrix(0.010850694444444444,0,0,0.010850694444444444,73.89322916666667,0)" xlink:href="#U"/><use transform="matrix(0.010850694444444444,0,0,0.010850694444444444,87.02256944444444,0)" xlink:href="#ab"/><use transform="matrix(0.010850694444444444,0,0,0.010850694444444444,101.08506944444444,0)" xlink:href="#Z"/><use transform="matrix(0.010850694444444444,0,0,0.010850694444444444,110.22135416666666,0)" xlink:href="#at"/><use transform="matrix(0.010850694444444444,0,0,0.010850694444444444,124.28385416666666,0)" xlink:href="#ah"/><use transform="matrix(0.010850694444444444,0,0,0.010850694444444444,138.88888888888889,0)" xlink:href="#T"/><use transform="matrix(0.010850694444444444,0,0,0.010850694444444444,152.31119791666666,0)" xlink:href="#ai"/><use transform="matrix(0.010850694444444444,0,0,0.010850694444444444,166.91623263888889,0)" xlink:href="#S"/><use transform="matrix(0.010850694444444444,0,0,0.010850694444444444,176.5625,0)" xlink:href="#aa"/><use transform="matrix(0.010850694444444444,0,0,0.010850694444444444,183.34418402777777,0)" xlink:href="#S"/><use transform="matrix(0.010850694444444444,0,0,0.010850694444444444,192.99045138888889,0)" xlink:href="#Y"/></g><path fill="#0b0b14" d="M1268-424c0 285-235 424-537 424H184v-1462c456 17 1047-96 1047 370 0 167-86 294-225 316v10c175 38 262 140 262 342zm-355-627c0-133-104-157-256-157H494v325h180c151-2 239-31 239-168zM696-256c158 0 250-52 250-199 0-121-87-182-260-182H494v381h202" id="au"/><g id="B"><use transform="matrix(0.010850694444444444,0,0,0.010850694444444444,0,0)" xlink:href="#au"/><use transform="matrix(0.010850694444444444,0,0,0.010850694444444444,14.930555555555555,0)" xlink:href="#af"/><use transform="matrix(0.010850694444444444,0,0,0.010850694444444444,21.712239583333332,0)" xlink:href="#ad"/><use transform="matrix(0.010850694444444444,0,0,0.010850694444444444,35.470920138888886,0)" xlink:href="#ak"/><use transform="matrix(0.010850694444444444,0,0,0.010850694444444444,46.896701388888886,0)" xlink:href="#as"/><use transform="matrix(0.010850694444444444,0,0,0.010850694444444444,60.23220486111111,0)" xlink:href="#ak"/><use transform="matrix(0.010850694444444444,0,0,0.010850694444444444,71.65798611111111,0)" xlink:href="#an"/><use transform="matrix(0.010850694444444444,0,0,0.010850694444444444,86.26302083333334,0)" xlink:href="#T"/><use transform="matrix(0.010850694444444444,0,0,0.010850694444444444,99.68532986111111,0)" xlink:href="#aa"/><use transform="matrix(0.010850694444444444,0,0,0.010850694444444444,106.46701388888889,0)" xlink:href="#ai"/><use transform="matrix(0.010850694444444444,0,0,0.010850694444444444,121.0720486111111,0)" xlink:href="#al"/><use transform="matrix(0.010850694444444444,0,0,0.010850694444444444,132.83420138888889,0)" xlink:href="#W"/><use transform="matrix(0.010850694444444444,0,0,0.010850694444444444,142.48046875,0)" xlink:href="#T"/><use transform="matrix(0.010850694444444444,0,0,0.010850694444444444,155.90277777777777,0)" xlink:href="#ai"/><use transform="matrix(0.010850694444444444,0,0,0.010850694444444444,170.5078125,0)" xlink:href="#V"/><use transform="matrix(0.010850694444444444,0,0,0.010850694444444444,181.55381944444443,0)" xlink:href="#T"/><use transform="matrix(0.010850694444444444,0,0,0.010850694444444444,194.97612847222223,0)" xlink:href="#ak"/><use transform="matrix(0.010850694444444444,0,0,0.010850694444444444,206.40190972222223,0)" xlink:href="#S"/><use transform="matrix(0.010850694444444444,0,0,0.010850694444444444,216.04817708333331,0)" xlink:href="#aa"/><use transform="matrix(0.010850694444444444,0,0,0.010850694444444444,222.82986111111111,0)" xlink:href="#ad"/><use transform="matrix(0.010850694444444444,0,0,0.010850694444444444,236.58854166666666,0)" xlink:href="#ai"/></g><g id="C"><use transform="matrix(0.010850694444444444,0,0,0.010850694444444444,0,0)" xlink:href="#ak"/><use transform="matrix(0.010850694444444444,0,0,0.010850694444444444,11.42578125,0)" xlink:href="#an"/><use transform="matrix(0.010850694444444444,0,0,0.010850694444444444,26.03081597222222,0)" xlink:href="#T"/><use transform="matrix(0.010850694444444444,0,0,0.010850694444444444,39.453125,0)" xlink:href="#aa"/><use transform="matrix(0.010850694444444444,0,0,0.010850694444444444,46.23480902777778,0)" xlink:href="#ai"/><use transform="matrix(0.010850694444444444,0,0,0.010850694444444444,60.83984375,0)" xlink:href="#Z"/><use transform="matrix(0.010850694444444444,0,0,0.010850694444444444,69.97612847222223,0)" xlink:href="#aa"/><use transform="matrix(0.010850694444444444,0,0,0.010850694444444444,76.7578125,0)" xlink:href="#ab"/></g><g id="D"><use transform="matrix(0.010850694444444444,0,0,0.010850694444444444,0,0)" xlink:href="#S"/><use transform="matrix(0.010850694444444444,0,0,0.010850694444444444,9.64626736111111,0)" xlink:href="#aq"/><use transform="matrix(0.010850694444444444,0,0,0.010850694444444444,22.493489583333332,0)" xlink:href="#Z"/><use transform="matrix(0.010850694444444444,0,0,0.010850694444444444,31.629774305555554,0)" xlink:href="#an"/><use transform="matrix(0.010850694444444444,0,0,0.010850694444444444,46.23480902777778,0)" xlink:href="#T"/><use transform="matrix(0.010850694444444444,0,0,0.010850694444444444,59.65711805555555,0)" xlink:href="#V"/><use transform="matrix(0.010850694444444444,0,0,0.010850694444444444,70.703125,0)" xlink:href="#an"/></g><path fill="#0b0b14" d="M881-1016c0-191-181-195-387-192v395c210 7 387-9 387-203zm313-8c0 197-121 322-272 387 220 329 363 541 430 637h-344L659-561H494V0H184v-1462h426c360 1 584 108 584 438" id="av"/><g id="E"><use transform="matrix(0.010850694444444444,0,0,0.010850694444444444,0,0)" xlink:href="#av"/><use transform="matrix(0.010850694444444444,0,0,0.010850694444444444,14.670138888888888,0)" xlink:href="#U"/><use transform="matrix(0.010850694444444444,0,0,0.010850694444444444,27.799479166666664,0)" xlink:href="#V"/><use transform="matrix(0.010850694444444444,0,0,0.010850694444444444,38.84548611111111,0)" xlink:href="#U"/><use transform="matrix(0.010850694444444444,0,0,0.010850694444444444,51.974826388888886,0)" xlink:href="#W"/><use transform="matrix(0.010850694444444444,0,0,0.010850694444444444,62.06597222222221,0)" xlink:href="#ag"/><use transform="matrix(0.010850694444444444,0,0,0.010850694444444444,74.70703124999999,0)" xlink:href="#U"/><use transform="matrix(0.010850694444444444,0,0,0.010850694444444444,87.83637152777776,0)" xlink:href="#aj"/><use transform="matrix(0.010850694444444444,0,0,0.010850694444444444,101.79036458333331,0)" xlink:href="#ad"/><use transform="matrix(0.010850694444444444,0,0,0.010850694444444444,115.54904513888887,0)" xlink:href="#V"/><use transform="matrix(0.010850694444444444,0,0,0.010850694444444444,126.59505208333331,0)" xlink:href="#aa"/><use transform="matrix(0.010850694444444444,0,0,0.010850694444444444,133.3767361111111,0)" xlink:href="#S"/><use transform="matrix(0.010850694444444444,0,0,0.010850694444444444,143.0230034722222,0)" xlink:href="#aa"/><use transform="matrix(0.010850694444444444,0,0,0.010850694444444444,149.80468749999997,0)" xlink:href="#ad"/><use transform="matrix(0.010850694444444444,0,0,0.010850694444444444,163.56336805555551,0)" xlink:href="#ai"/></g><path fill="#0b0b14" d="M1384-895c-176 0-222 133-223 334V0H856v-653c-1-144-37-242-168-242-78 0-135 29-170 86s-53 152-53 283V0H160v-1118h233l41 143h17c56-98 174-164 325-164 167 0 281 55 340 164h27c55-99 179-165 330-164 265 2 385 133 385 410V0h-306v-653c-1-144-37-242-168-242" id="aw"/><g id="F"><use transform="matrix(0.010850694444444444,0,0,0.010850694444444444,0,0)" xlink:href="#T"/><use transform="matrix(0.010850694444444444,0,0,0.010850694444444444,13.422309027777777,0)" xlink:href="#aw"/><use transform="matrix(0.010850694444444444,0,0,0.010850694444444444,35.24305555555556,0)" xlink:href="#ad"/><use transform="matrix(0.010850694444444444,0,0,0.010850694444444444,49.00173611111111,0)" xlink:href="#ah"/><use transform="matrix(0.010850694444444444,0,0,0.010850694444444444,63.60677083333333,0)" xlink:href="#ai"/><use transform="matrix(0.010850694444444444,0,0,0.010850694444444444,78.21180555555556,0)" xlink:href="#S"/><use transform="matrix(0.010850694444444444,0,0,0.010850694444444444,87.85807291666667,0)" xlink:href="#am"/></g><path fill="#0b0b14" d="M776-240c213 0 289-110 289-329v-893h309v946c-8 356-241 531-606 536-358 5-595-195-594-540v-942h309v895c2 220 76 327 293 327" id="ax"/><path fill="#0b0b14" d="M643-1462c464-5 754 260 754 717 0 491-297 749-799 745H184v-1462h459zm432 725c0-314-139-471-416-471H494v952h133c299 0 448-160 448-481" id="ay"/><path fill="#0b0b14" d="M1079 0L973-348H440L334 0H0l516-1468h379L1413 0h-334zM899-608c-127-415-146-457-192-633-22 85-85 296-189 633h381" id="az"/><g id="G"><use transform="matrix(0.010850694444444444,0,0,0.010850694444444444,0,0)" xlink:href="#ax"/><use transform="matrix(0.010850694444444444,0,0,0.010850694444444444,16.796875,0)" xlink:href="#R"/><use transform="matrix(0.010850694444444444,0,0,0.010850694444444444,29.036458333333332,0)" xlink:href="#ay"/><use transform="matrix(0.010850694444444444,0,0,0.010850694444444444,45.48611111111111,0)" xlink:href="#ad"/><use transform="matrix(0.010850694444444444,0,0,0.010850694444444444,59.24479166666667,0)" xlink:href="#af"/><use transform="matrix(0.010850694444444444,0,0,0.010850694444444444,66.02647569444444,0)" xlink:href="#af"/><use transform="matrix(0.010850694444444444,0,0,0.010850694444444444,72.80815972222221,0)" xlink:href="#T"/><use transform="matrix(0.010850694444444444,0,0,0.010850694444444444,86.23046874999999,0)" xlink:href="#W"/><use transform="matrix(0.010850694444444444,0,0,0.010850694444444444,96.32161458333331,0)" xlink:href="#az"/><use transform="matrix(0.010850694444444444,0,0,0.010850694444444444,111.65364583333331,0)" xlink:href="#aw"/><use transform="matrix(0.010850694444444444,0,0,0.010850694444444444,133.4743923611111,0)" xlink:href="#ad"/><use transform="matrix(0.010850694444444444,0,0,0.010850694444444444,147.23307291666663,0)" xlink:href="#ah"/><use transform="matrix(0.010850694444444444,0,0,0.010850694444444444,161.83810763888886,0)" xlink:href="#ai"/><use transform="matrix(0.010850694444444444,0,0,0.010850694444444444,176.4431423611111,0)" xlink:href="#S"/></g><path fill="#0b0b14" d="M1018-1462h313L834 0H496L0-1462h313l275 870c22 71 66 250 78 322 7-61 27-170 75-322" id="aA"/><g id="H"><use transform="matrix(0.010850694444444444,0,0,0.010850694444444444,0,0)" xlink:href="#aA"/><use transform="matrix(0.010850694444444444,0,0,0.010850694444444444,14.442274305555555,0)" xlink:href="#aa"/><use transform="matrix(0.010850694444444444,0,0,0.010850694444444444,21.223958333333332,0)" xlink:href="#V"/><use transform="matrix(0.010850694444444444,0,0,0.010850694444444444,32.26996527777778,0)" xlink:href="#ah"/><use transform="matrix(0.010850694444444444,0,0,0.010850694444444444,46.875,0)" xlink:href="#T"/><use transform="matrix(0.010850694444444444,0,0,0.010850694444444444,60.29730902777778,0)" xlink:href="#af"/><use transform="matrix(0.010850694444444444,0,0,0.010850694444444444,67.07899305555556,0)" xlink:href="#aa"/><use transform="matrix(0.010850694444444444,0,0,0.010850694444444444,73.86067708333333,0)" xlink:href="#V"/><use transform="matrix(0.010850694444444444,0,0,0.010850694444444444,84.90668402777777,0)" xlink:href="#T"/><use transform="matrix(0.010850694444444444,0,0,0.010850694444444444,98.32899305555556,0)" xlink:href="#S"/><use transform="matrix(0.010850694444444444,0,0,0.010850694444444444,107.97526041666666,0)" xlink:href="#aa"/><use transform="matrix(0.010850694444444444,0,0,0.010850694444444444,114.75694444444441,0)" xlink:href="#ad"/><use transform="matrix(0.010850694444444444,0,0,0.010850694444444444,128.51562499999997,0)" xlink:href="#ai"/></g><g id="I"><use transform="matrix(0.010850694444444444,0,0,0.010850694444444444,0,0)" xlink:href="#aj"/><use transform="matrix(0.010850694444444444,0,0,0.010850694444444444,13.953993055555555,0)" xlink:href="#af"/><use transform="matrix(0.010850694444444444,0,0,0.010850694444444444,20.735677083333332,0)" xlink:href="#ad"/><use transform="matrix(0.010850694444444444,0,0,0.010850694444444444,34.494357638888886,0)" xlink:href="#S"/></g><path fill="#0b0b14" d="M184 0v-1462h310V0H184" id="aB"/><g id="J"><use transform="matrix(0.010850694444444444,0,0,0.010850694444444444,0,0)" xlink:href="#al"/><use transform="matrix(0.010850694444444444,0,0,0.010850694444444444,11.762152777777777,0)" xlink:href="#W"/><use transform="matrix(0.010850694444444444,0,0,0.010850694444444444,21.408420138888886,0)" xlink:href="#T"/><use transform="matrix(0.010850694444444444,0,0,0.010850694444444444,34.830729166666664,0)" xlink:href="#ab"/><use transform="matrix(0.010850694444444444,0,0,0.010850694444444444,48.893229166666664,0)" xlink:href="#aa"/><use transform="matrix(0.010850694444444444,0,0,0.010850694444444444,55.67491319444444,0)" xlink:href="#ai"/><use transform="matrix(0.010850694444444444,0,0,0.010850694444444444,70.27994791666666,0)" xlink:href="#X"/><use transform="matrix(0.010850694444444444,0,0,0.010850694444444444,82.83420138888889,0)" xlink:href="#aj"/><use transform="matrix(0.010850694444444444,0,0,0.010850694444444444,96.78819444444444,0)" xlink:href="#T"/><use transform="matrix(0.010850694444444444,0,0,0.010850694444444444,110.21050347222221,0)" xlink:href="#aa"/><use transform="matrix(0.010850694444444444,0,0,0.010850694444444444,116.99218749999997,0)" xlink:href="#W"/><use transform="matrix(0.010850694444444444,0,0,0.010850694444444444,127.08333333333331,0)" xlink:href="#aB"/><use transform="matrix(0.010850694444444444,0,0,0.010850694444444444,134.44010416666666,0)" xlink:href="#ab"/><use transform="matrix(0.010850694444444444,0,0,0.010850694444444444,148.50260416666666,0)" xlink:href="#U"/><use transform="matrix(0.010850694444444444,0,0,0.010850694444444444,161.63194444444443,0)" xlink:href="#ai"/><use transform="matrix(0.010850694444444444,0,0,0.010850694444444444,176.23697916666666,0)" xlink:href="#S"/><use transform="matrix(0.010850694444444444,0,0,0.010850694444444444,185.88324652777777,0)" xlink:href="#aa"/><use transform="matrix(0.010850694444444444,0,0,0.010850694444444444,192.66493055555554,0)" xlink:href="#ae"/><use transform="matrix(0.010850694444444444,0,0,0.010850694444444444,201.26953125,0)" xlink:href="#aa"/><use transform="matrix(0.010850694444444444,0,0,0.010850694444444444,208.05121527777777,0)" xlink:href="#U"/><use transform="matrix(0.010850694444444444,0,0,0.010850694444444444,221.18055555555554,0)" xlink:href="#W"/></g><g id="K"><use transform="matrix(0.010850694444444444,0,0,0.010850694444444444,0,0)" xlink:href="#ak"/><use transform="matrix(0.010850694444444444,0,0,0.010850694444444444,11.42578125,0)" xlink:href="#an"/><use transform="matrix(0.010850694444444444,0,0,0.010850694444444444,26.03081597222222,0)" xlink:href="#T"/><use transform="matrix(0.010850694444444444,0,0,0.010850694444444444,39.453125,0)" xlink:href="#aa"/><use transform="matrix(0.010850694444444444,0,0,0.010850694444444444,46.23480902777778,0)" xlink:href="#ai"/><use transform="matrix(0.010850694444444444,0,0,0.010850694444444444,60.83984375,0)" xlink:href="#Z"/><use transform="matrix(0.010850694444444444,0,0,0.010850694444444444,69.97612847222223,0)" xlink:href="#aa"/><use transform="matrix(0.010850694444444444,0,0,0.010850694444444444,76.7578125,0)" xlink:href="#ab"/></g><g id="L"><use transform="matrix(0.010850694444444444,0,0,0.010850694444444444,0,0)" xlink:href="#U"/><use transform="matrix(0.010850694444444444,0,0,0.010850694444444444,12.684461805555555,0)" xlink:href="#aq"/><use transform="matrix(0.010850694444444444,0,0,0.010850694444444444,25.08680555555556,0)" xlink:href="#ak"/><use transform="matrix(0.010850694444444444,0,0,0.010850694444444444,36.51258680555556,0)" xlink:href="#an"/><use transform="matrix(0.010850694444444444,0,0,0.010850694444444444,51.11762152777778,0)" xlink:href="#T"/><use transform="matrix(0.010850694444444444,0,0,0.010850694444444444,64.53993055555556,0)" xlink:href="#ai"/><use transform="matrix(0.010850694444444444,0,0,0.010850694444444444,79.14496527777777,0)" xlink:href="#X"/><use transform="matrix(0.010850694444444444,0,0,0.010850694444444444,91.69921875,0)" xlink:href="#U"/><use transform="matrix(0.010850694444444444,0,0,0.010850694444444444,104.82855902777777,0)" xlink:href="#Z"/><use transform="matrix(0.010850694444444444,0,0,0.010850694444444444,113.96484375,0)" xlink:href="#aa"/><use transform="matrix(0.010850694444444444,0,0,0.010850694444444444,120.74652777777777,0)" xlink:href="#ab"/></g><g id="M"><use transform="matrix(0.010850694444444444,0,0,0.010850694444444444,0,0)" xlink:href="#aa"/><use transform="matrix(0.010850694444444444,0,0,0.010850694444444444,6.781684027777778,0)" xlink:href="#ai"/><use transform="matrix(0.010850694444444444,0,0,0.010850694444444444,21.38671875,0)" xlink:href="#S"/><use transform="matrix(0.010850694444444444,0,0,0.010850694444444444,31.03298611111111,0)" xlink:href="#U"/><use transform="matrix(0.010850694444444444,0,0,0.010850694444444444,44.162326388888886,0)" xlink:href="#W"/><use transform="matrix(0.010850694444444444,0,0,0.010850694444444444,54.25347222222221,0)" xlink:href="#ai"/><use transform="matrix(0.010850694444444444,0,0,0.010850694444444444,68.85850694444443,0)" xlink:href="#T"/><use transform="matrix(0.010850694444444444,0,0,0.010850694444444444,82.2808159722222,0)" xlink:href="#af"/><use transform="matrix(0.010850694444444444,0,0,0.010850694444444444,89.06249999999997,0)" xlink:href="#Z"/><use transform="matrix(0.010850694444444444,0,0,0.010850694444444444,98.1987847222222,0)" xlink:href="#aa"/><use transform="matrix(0.010850694444444444,0,0,0.010850694444444444,104.98046874999997,0)" xlink:href="#ab"/></g><g id="N"><use transform="matrix(0.010850694444444444,0,0,0.010850694444444444,0,0)" xlink:href="#ar"/><use transform="matrix(0.010850694444444444,0,0,0.010850694444444444,14.0625,0)" xlink:href="#T"/><use transform="matrix(0.010850694444444444,0,0,0.010850694444444444,27.48480902777778,0)" xlink:href="#V"/><use transform="matrix(0.010850694444444444,0,0,0.010850694444444444,38.53081597222222,0)" xlink:href="#U"/><use transform="matrix(0.010850694444444444,0,0,0.010850694444444444,51.66015625,0)" xlink:href="#am"/></g><g id="O"><use transform="matrix(0.010850694444444444,0,0,0.010850694444444444,0,0)" xlink:href="#al"/><use transform="matrix(0.010850694444444444,0,0,0.010850694444444444,11.317274305555555,0)" xlink:href="#ad"/><use transform="matrix(0.010850694444444444,0,0,0.010850694444444444,25.07595486111111,0)" xlink:href="#as"/><use transform="matrix(0.010850694444444444,0,0,0.010850694444444444,38.411458333333336,0)" xlink:href="#U"/><use transform="matrix(0.010850694444444444,0,0,0.010850694444444444,51.54079861111112,0)" xlink:href="#ai"/></g><g id="P"><use transform="matrix(0.010850694444444444,0,0,0.010850694444444444,0,0)" xlink:href="#at"/><use transform="matrix(0.010850694444444444,0,0,0.010850694444444444,14.0625,0)" xlink:href="#ah"/><use transform="matrix(0.010850694444444444,0,0,0.010850694444444444,28.66753472222222,0)" xlink:href="#ad"/><use transform="matrix(0.010850694444444444,0,0,0.010850694444444444,42.42621527777778,0)" xlink:href="#S"/><use transform="matrix(0.010850694444444444,0,0,0.010850694444444444,52.072482638888886,0)" xlink:href="#U"/><use transform="matrix(0.010850694444444444,0,0,0.010850694444444444,65.20182291666666,0)" xlink:href="#am"/></g><g id="Q"><use transform="matrix(0.010850694444444444,0,0,0.010850694444444444,0,0)" xlink:href="#al"/><use transform="matrix(0.010850694444444444,0,0,0.010850694444444444,11.317274305555555,0)" xlink:href="#ad"/><use transform="matrix(0.010850694444444444,0,0,0.010850694444444444,25.07595486111111,0)" xlink:href="#as"/><use transform="matrix(0.010850694444444444,0,0,0.010850694444444444,38.411458333333336,0)" xlink:href="#U"/><use transform="matrix(0.010850694444444444,0,0,0.010850694444444444,51.54079861111112,0)" xlink:href="#ai"/></g></defs></g></svg>